<mxfile host="Electron" agent="Mozilla/5.0 (Windows NT 10.0; Win64; x64) AppleWebKit/537.36 (KHTML, like Gecko) draw.io/26.1.1 Chrome/132.0.6834.210 Electron/34.3.3 Safari/537.36" version="26.1.1">
  <diagram name="Page-1" id="DI8G38LbEOj9qJDW7HgA">
    <mxGraphModel dx="1594" dy="1080" grid="1" gridSize="10" guides="1" tooltips="1" connect="1" arrows="1" fold="1" page="1" pageScale="1" pageWidth="850" pageHeight="1100" math="0" shadow="0">
      <root>
        <mxCell id="0" />
        <mxCell id="1" parent="0" />
        <mxCell id="Vm8956Kmj3FX7EuKKiUj-34" value="" style="rounded=0;whiteSpace=wrap;html=1;fillColor=#dae8fc;strokeColor=default;" vertex="1" parent="1">
          <mxGeometry x="133" y="80" width="1160" height="560" as="geometry" />
        </mxCell>
        <mxCell id="Vm8956Kmj3FX7EuKKiUj-19" value="" style="rounded=0;whiteSpace=wrap;html=1;fillColor=default;strokeColor=none;" vertex="1" parent="1">
          <mxGeometry x="1096" y="158" width="120" height="400" as="geometry" />
        </mxCell>
        <mxCell id="Vm8956Kmj3FX7EuKKiUj-27" style="edgeStyle=orthogonalEdgeStyle;rounded=0;orthogonalLoop=1;jettySize=auto;html=1;exitX=1;exitY=0.5;exitDx=0;exitDy=0;entryX=0;entryY=0.5;entryDx=0;entryDy=0;" edge="1" parent="1" source="Vm8956Kmj3FX7EuKKiUj-18" target="Vm8956Kmj3FX7EuKKiUj-19">
          <mxGeometry relative="1" as="geometry" />
        </mxCell>
        <mxCell id="Vm8956Kmj3FX7EuKKiUj-18" value="" style="rounded=0;whiteSpace=wrap;html=1;fillColor=default;strokeColor=none;" vertex="1" parent="1">
          <mxGeometry x="888" y="158" width="120" height="400" as="geometry" />
        </mxCell>
        <mxCell id="Vm8956Kmj3FX7EuKKiUj-26" style="edgeStyle=orthogonalEdgeStyle;rounded=0;orthogonalLoop=1;jettySize=auto;html=1;exitX=1;exitY=0.5;exitDx=0;exitDy=0;" edge="1" parent="1" source="Vm8956Kmj3FX7EuKKiUj-17" target="Vm8956Kmj3FX7EuKKiUj-18">
          <mxGeometry relative="1" as="geometry" />
        </mxCell>
        <mxCell id="Vm8956Kmj3FX7EuKKiUj-17" value="" style="rounded=0;whiteSpace=wrap;html=1;fillColor=default;strokeColor=none;" vertex="1" parent="1">
          <mxGeometry x="714" y="414" width="120" height="142" as="geometry" />
        </mxCell>
        <mxCell id="Vm8956Kmj3FX7EuKKiUj-25" style="edgeStyle=orthogonalEdgeStyle;rounded=0;orthogonalLoop=1;jettySize=auto;html=1;exitX=1;exitY=0.5;exitDx=0;exitDy=0;entryX=0.5;entryY=0;entryDx=0;entryDy=0;" edge="1" parent="1" source="Vm8956Kmj3FX7EuKKiUj-16" target="Vm8956Kmj3FX7EuKKiUj-17">
          <mxGeometry relative="1" as="geometry" />
        </mxCell>
        <mxCell id="Vm8956Kmj3FX7EuKKiUj-16" value="" style="rounded=0;whiteSpace=wrap;html=1;fillColor=default;strokeColor=none;" vertex="1" parent="1">
          <mxGeometry x="550.4" y="162" width="120" height="400" as="geometry" />
        </mxCell>
        <mxCell id="Vm8956Kmj3FX7EuKKiUj-23" style="edgeStyle=orthogonalEdgeStyle;rounded=0;orthogonalLoop=1;jettySize=auto;html=1;exitX=1;exitY=0.5;exitDx=0;exitDy=0;entryX=0;entryY=0.5;entryDx=0;entryDy=0;" edge="1" parent="1" source="Vm8956Kmj3FX7EuKKiUj-15" target="Vm8956Kmj3FX7EuKKiUj-16">
          <mxGeometry relative="1" as="geometry" />
        </mxCell>
        <mxCell id="Vm8956Kmj3FX7EuKKiUj-15" value="" style="rounded=0;whiteSpace=wrap;html=1;fillColor=default;strokeColor=none;" vertex="1" parent="1">
          <mxGeometry x="381" y="417" width="120" height="142" as="geometry" />
        </mxCell>
        <mxCell id="Vm8956Kmj3FX7EuKKiUj-22" style="edgeStyle=orthogonalEdgeStyle;rounded=0;orthogonalLoop=1;jettySize=auto;html=1;exitX=0.5;exitY=1;exitDx=0;exitDy=0;entryX=0.5;entryY=0;entryDx=0;entryDy=0;" edge="1" parent="1" source="Vm8956Kmj3FX7EuKKiUj-14" target="Vm8956Kmj3FX7EuKKiUj-15">
          <mxGeometry relative="1" as="geometry" />
        </mxCell>
        <mxCell id="Vm8956Kmj3FX7EuKKiUj-14" value="" style="rounded=0;whiteSpace=wrap;html=1;fillColor=default;strokeColor=none;" vertex="1" parent="1">
          <mxGeometry x="381" y="164" width="120" height="142" as="geometry" />
        </mxCell>
        <mxCell id="Vm8956Kmj3FX7EuKKiUj-21" style="edgeStyle=orthogonalEdgeStyle;rounded=0;orthogonalLoop=1;jettySize=auto;html=1;exitX=1;exitY=0.5;exitDx=0;exitDy=0;entryX=0;entryY=0.5;entryDx=0;entryDy=0;" edge="1" parent="1" source="Vm8956Kmj3FX7EuKKiUj-13" target="Vm8956Kmj3FX7EuKKiUj-14">
          <mxGeometry relative="1" as="geometry" />
        </mxCell>
        <mxCell id="Vm8956Kmj3FX7EuKKiUj-13" value="" style="rounded=0;whiteSpace=wrap;html=1;fillColor=default;strokeColor=none;" vertex="1" parent="1">
          <mxGeometry x="220" y="162" width="120" height="400" as="geometry" />
        </mxCell>
        <mxCell id="Vm8956Kmj3FX7EuKKiUj-3" value="&lt;b&gt;&lt;font face=&quot;Comic Sans MS&quot;&gt;Data Source&lt;/font&gt;&lt;/b&gt;" style="image;html=1;image=img/lib/clip_art/computers/Server_Tower_128x128.png;" vertex="1" parent="1">
          <mxGeometry x="255" y="308" width="50" height="70" as="geometry" />
        </mxCell>
        <mxCell id="Vm8956Kmj3FX7EuKKiUj-5" value="&lt;b&gt;&lt;font face=&quot;Comic Sans MS&quot;&gt;Data Factory&lt;/font&gt;&lt;/b&gt;" style="image;aspect=fixed;html=1;points=[];align=center;fontSize=12;image=img/lib/azure2/databases/Data_Factory.svg;" vertex="1" parent="1">
          <mxGeometry x="407" y="197" width="68" height="68" as="geometry" />
        </mxCell>
        <mxCell id="Vm8956Kmj3FX7EuKKiUj-6" value="&lt;b&gt;&lt;font face=&quot;Comic Sans MS&quot;&gt;Data Lake&lt;/font&gt;&lt;/b&gt;" style="image;sketch=0;aspect=fixed;html=1;points=[];align=center;fontSize=12;image=img/lib/mscae/Data_Lake.svg;" vertex="1" parent="1">
          <mxGeometry x="422" y="457" width="38" height="50" as="geometry" />
        </mxCell>
        <mxCell id="Vm8956Kmj3FX7EuKKiUj-7" value="&lt;b&gt;&lt;font face=&quot;Comic Sans MS&quot;&gt;Azure Databricks&lt;/font&gt;&lt;/b&gt;" style="image;aspect=fixed;html=1;points=[];align=center;fontSize=12;image=img/lib/azure2/analytics/Azure_Databricks.svg;" vertex="1" parent="1">
          <mxGeometry x="579" y="306" width="62.8" height="68" as="geometry" />
        </mxCell>
        <mxCell id="Vm8956Kmj3FX7EuKKiUj-8" value="&lt;b&gt;&lt;font face=&quot;Comic Sans MS&quot;&gt;Azure Synapse&lt;/font&gt;&lt;/b&gt;" style="image;aspect=fixed;html=1;points=[];align=center;fontSize=12;image=img/lib/azure2/analytics/Azure_Synapse_Analytics.svg;" vertex="1" parent="1">
          <mxGeometry x="918" y="299" width="60" height="69" as="geometry" />
        </mxCell>
        <mxCell id="Vm8956Kmj3FX7EuKKiUj-9" value="&lt;b&gt;POWER BI&lt;/b&gt;" style="image;aspect=fixed;html=1;points=[];align=center;fontSize=12;image=img/lib/azure2/analytics/Power_BI_Embedded.svg;" vertex="1" parent="1">
          <mxGeometry x="1129" y="198" width="51" height="68" as="geometry" />
        </mxCell>
        <mxCell id="Vm8956Kmj3FX7EuKKiUj-10" value="" style="sketch=0;html=1;verticalAlign=top;labelPosition=center;verticalLabelPosition=bottom;align=center;spacingTop=-6;fontSize=11;fontStyle=1;fontColor=#999999;shape=image;aspect=fixed;imageAspect=0;image=data:image/svg+xml,PHN2ZyB4bWxucz0iaHR0cDovL3d3dy53My5vcmcvMjAwMC9zdmciIGlkPSJzdmc4OTgwMSIgdmVyc2lvbj0iMS4xIiB2aWV3Qm94PSIwIDAgMjA4LjA1NjU1IDMzNC42MTMxNiIgaGVpZ2h0PSIzMzQuNjEzMTZtbSIgd2lkdGg9IjIwOC4wNTY1NW1tIj4mI3hhOyAgJiN4YTsgIDxkZWZzIGlkPSJkZWZzODk3OTgiLz4mI3hhOyAgPGcgdHJhbnNmb3JtPSJ0cmFuc2xhdGUoLTQuMjQ2MjUyNCwxNS42NzE5MTEpIiBpZD0ibGF5ZXIxIj4mI3hhOyAgICA8cGF0aCBpZD0icGF0aDkxODAyIiB0cmFuc2Zvcm09InNjYWxlKDAuMjY0NTgzMzMpIiBkPSJtIDQwOS4yMjI2Niw0MTkuMDk5NjEgYyAtMzYuNjA4MTEsMCAtNzIuMDc2NjcsNS4wNzUzIC0xMDUuNzUzOTEsMTQuNTMxMjUgbCA0OS4wMzUxNiwxMjAuMDQxMDIgYyAxOC4yNjE3MiwtMy45Mzg5OSAzNy4yMjE5NiwtNi4wNjgzNiA1Ni43MTg3NSwtNi4wNjgzNiAxNDYuOTM1MTQsMCAyNjQuNjc3NzMsMTE3LjczNDc3IDI2NC42Nzc3MywyNjQuNjY5OTIgMCwxNDYuOTM1MTQgLTExNy43NDI1OSwyNjQuNjY5OTYgLTI2NC42Nzc3MywyNjQuNjY5OTYgLTE0Ni45MzUxNiwwIC0yNjQuNjY5OTEsLTExNy43MzQ4MiAtMjY0LjY2OTkzLC0yNjQuNjY5OTYgMCwtOTkuMTg3NjMgNTMuNjg5ODMsLTE4NS4wMDU5NiAxMzMuNzU1ODYsLTIzMC4zNDc2NiBMIDIyOS42MjY5NSw0NjIuNzUgQyAxMDMuMDI0Nyw1MjguMjI0NzQgMTYuMDQ4ODI3LDY2MC41MDUyMyAxNi4wNDg4MjgsODEyLjI3MzQ0IGMgMi4zZS01LDIxNi4zODM3NiAxNzYuNzkwMDYyLDM5My4xNzM4NiAzOTMuMTczODMyLDM5My4xNzM4NiAyMTYuMzgzNzMsMCAzOTMuMTgxNjQsLTE3Ni43OTAxIDM5My4xODE2NCwtMzkzLjE3Mzg2IDNlLTUsLTIxNi4zODM3OCAtMTc2Ljc5Nzg3LC0zOTMuMTczODMgLTM5My4xODE2NCwtMzkzLjE3MzgzIHoiIHN0eWxlPSJjb2xvcjojMDAwMDAwO29wYWNpdHk6MTtmaWxsOiM1OTg2ZjI7ZmlsbC1vcGFjaXR5OjE7c3Ryb2tlLXdpZHRoOjMuNzc5NTM7c3Ryb2tlLWxpbmVqb2luOnJvdW5kOy1pbmtzY2FwZS1zdHJva2U6bm9uZSIvPiYjeGE7ICAgIDxwYXRoIGQ9Im0gMTg5Ljk0MzM2LDg2LjI1IGMgLTk1LjEzMDMzMSwwIC0xNzMuMTc5Njg4LDc4LjA1NTIyIC0xNzMuMTc5Njg4LDE3My4xODU1NSAtNmUtNiw5NS4xMzAzMyA3OC4wNDkzNTMsMTczLjE3OTY4IDE3My4xNzk2ODgsMTczLjE3OTY4IDkuMDE2MTgsMCAxNy44NzU4LC0wLjcwODMyIDI2LjUzMzIsLTIuMDU4NTkgbCAtMzQuODI4MTIsLTg1LjI2NTYyIGMgLTQ0LjE1NzMsLTQuMDg2NjkgLTc3Ljk1NTA4LC00MC41MDcwNSAtNzcuOTU1MDgsLTg1Ljg1NTQ3IDAsLTQ4LjE1MDM5IDM4LjA5OTYyLC04Ni4yNTU4NiA4Ni4yNSwtODYuMjU1ODYgMTMuMTU5NzcsMCAyNS41NTg4OCwyLjg2MjQ2IDM2LjY0NDUzLDcuOTgyNDIgbCA2NC41NTQ2OSwtNjEuOTE5OTIgQyAyNjIuNjA4MzcsOTguNTMzOTEgMjI3LjYyOTI5LDg2LjI1IDE4OS45NDMzNiw4Ni4yNSBaIG0gMTM4Ljg4ODY3LDcwLjE2MjExIC02My40Mjc3Myw2MC44MzU5NCBjIDYuODc2MzgsMTIuNDI2NzggMTAuNzg5MDYsMjYuNzg4MTUgMTAuNzg5MDYsNDIuMTg3NSAwLDIxLjc2NzEyIC03LjgwNDE1LDQxLjQ2NTQgLTIwLjc4NTE2LDU2LjUzMzIgbCAzNC41MjM0NCw4NC41MTk1MyBjIDQ0LjE3Mzg3LC0zMS40ODc1MSA3My4xOTE0MSwtODMuMDc4OTIgNzMuMTkxNDEsLTE0MS4wNTI3MyAwLC0zOC40ODM1NSAtMTIuNzgyLC03NC4xNjUzMiAtMzQuMjkxMDIsLTEwMy4wMjM0NCB6IiB0cmFuc2Zvcm09InNjYWxlKDAuMjY0NTgzMzMpIiBzdHlsZT0iY29sb3I6IzAwMDAwMDtvcGFjaXR5OjE7ZmlsbDojNmY5OGY0O2ZpbGwtb3BhY2l0eToxO3N0cm9rZS13aWR0aDozLjc3OTUzO3N0cm9rZS1saW5lam9pbjpyb3VuZDstaW5rc2NhcGUtc3Ryb2tlOm5vbmUiIGlkPSJwYXRoOTE3OTgiLz4mI3hhOyAgICA8cGF0aCBpZD0icGF0aDg5OTI4IiB0cmFuc2Zvcm09InNjYWxlKDAuMjY0NTgzMzMpIiBkPSJtIDQwNi4xMzY3MiwtNTkuMjMyNDIyIGMgLTU4LjgxNTQ3LDhlLTYgLTEwNy4xMDM1Miw0OC4yODgwNDUgLTEwNy4xMDM1MiwxMDcuMTAzNTE2IDAsMTguNDk0NDUxIDQuNzgxMDEsMzUuOTQ1MDE3IDEzLjE1NjI1LDUxLjE4MzU5NCBsIDQ0LjMxMjUsLTQyLjUwMzkwNyBjIC0wLjQ3NTY3LC0yLjgyMDc3NSAtMC43NzUzOSwtNS43MDc1NjQgLTAuNzc1MzksLTguNjc5Njg3IDAsLTI4LjE3NjM4IDIyLjIzMzc4LC01MC40MTAxNTI1IDUwLjQxMDE2LC01MC40MTAxNTY1IDI4LjE3NjM4LC00ZS02IDUwLjQxMDE1LDIyLjIzMzc3MDUgNTAuNDEwMTYsNTAuNDEwMTU2NSAwLDI4LjE3NjM4MSAtMjIuMjMzNzgsNTAuNDEyMTEzIC01MC40MTAxNiw1MC40MTIxMDkgLTUuMDY4NjksLTEwZS03IC05LjkzNDE3LC0wLjc0NTYzMSAtMTQuNTIzNDQsLTIuMDg5ODQ0IGwgLTQzLjM2MTMzLDQxLjU5MTgwMSBjIDE2LjczMjIzLDEwLjg0Nzk1IDM2LjYxMTIzLDE3LjE4OTQ1IDU3Ljg4NDc3LDE3LjE4OTQ1IDU4LjgxNTQ5LDEwZS02IDEwNy4xMDM1MSwtNDguMjg4MDQgMTA3LjEwMzUxLC0xMDcuMTAzNTE2IDAsLTU4LjgxNTQ4MyAtNDguMjg4MDIsLTEwNy4xMDM1MjMgLTEwNy4xMDM1MSwtMTA3LjEwMzUxNiB6IiBzdHlsZT0iY29sb3I6IzAwMDAwMDtvcGFjaXR5OjE7ZmlsbDojZDZlM2ZiO2ZpbGwtb3BhY2l0eToxO3N0cm9rZS13aWR0aDozLjc3OTUzO3N0cm9rZS1saW5lam9pbjpyb3VuZDstaW5rc2NhcGUtc3Ryb2tlOm5vbmUiLz4mI3hhOyAgPC9nPiYjeGE7PC9zdmc+;" vertex="1" parent="1">
          <mxGeometry x="1145.5" y="337" width="26" height="42" as="geometry" />
        </mxCell>
        <mxCell id="Vm8956Kmj3FX7EuKKiUj-11" value="&lt;b&gt;&lt;font face=&quot;Comic Sans MS&quot;&gt;Data Lake&lt;/font&gt;&lt;/b&gt;" style="image;sketch=0;aspect=fixed;html=1;points=[];align=center;fontSize=12;image=img/lib/mscae/Data_Lake.svg;" vertex="1" parent="1">
          <mxGeometry x="755" y="448" width="38" height="50" as="geometry" />
        </mxCell>
        <mxCell id="Vm8956Kmj3FX7EuKKiUj-12" value="" style="shape=image;verticalLabelPosition=bottom;labelBackgroundColor=default;verticalAlign=top;aspect=fixed;imageAspect=0;image=data:image/png,iVBORw0KGgoAAAANSUhEUgAAAfQAAAH0CAYAAADL1t+KAADKH0lEQVR4Xuz9B3hk15Ueip5YuZDRQKNzDsw5ixIVKIlKY2lG0kR7xuE5PIfn63Tv9fWz7/e+7zq8912Px+MZjyd4xjMayUpUJMUgikFkN5vNTuzAzhEZKKDyie9fa59Co5tNNkIBVQDWIdEAClXn7PPvffa/8tI0OQQBQUAQEAQEAUFAEBAEBAFBQBAQBAQBQUAQEAQEAUFAEBAEBAFBQBAQBAQBQUAQEAQEAUFAEBAEBAFBQBAQBAQBQUAQEAQEAUFAEBAEBAFBQBAQBAQBQUAQEAQEAUFAEBAEBAFBQBAQBAQBQUAQEAQEAUFAEBAEBAFBQBAQBAQBQUAQEAQEAUFAEBAEBAFBQBAQBAQBQUAQEAQEAUFAEBAEBAFBQBAQBAQBQUAQEAQEAUFAEBAEBAFBQBAQBAQBQUAQEAQEAUFAEBAEBAFBQBAQBAQBQUAQEAQEAUFAEBAEBAFBQBAQBAQBQUAQEAQEAUFAEBAEBAFBQBAQBAQBQUAQEAQEAUFAEBAEBAFBQBAQBAQBQUAQEAQEAUFAEBAEBAFBQBAQBAQBQUAQEAQEAUFAEBAEBAFBQBAQBAQBQUAQEAQEAUFAEBAEBAFBQBAQBAQBQUAQEAQEAUFAEBAEBAFBQBAQBAQBQUAQEAQEAUFAEBAEBAFBQBAQBAQBQUAQEAQEAUFAEBAEBAFBQBAQBAQBQUAQEAQEAUFAEBAEBAFBQBAQBAQBQUAQEAQEAUFAEBAEBAFBQBAQBAQBQUAQEAQEAUFAEBAEBAFBQBAQBAQBQUAQEAQEAUFAEBAEBAFBQBAQBAQBQUAQEAQEAUFAEBAEBAFBQBAQBAQBQUAQEAQEAUFAEBAEBAFBQBAQBAQBQUAQEAQEAUFAEBAEBAFBQBAQBAQBQUAQEAQEAUFAEBAEBAFBQBAQBAQBQUAQEAQEAUFAEBAEBAFBQBAQBAQBQUAQEAQEAUFAEBAEBAFBQBAQBAQBQUAQEAQEAUFAEBAEBAFBQBAQBAQBQUAQEAQEAUFAEBAEBAFBQBAQBAQBQUAQEAQEAUFAEBAEBAFBQBAQBAQBQUAQEAQEAUFAEBAEBAFBQBAQBAQBQUAQEAQEAUFAEBAEBAFBQBAQBAQBQUAQEAQEAUFAEBAEBAFBQBAQBAQBQUAQEAQEAUFAEBAEBAFBQBAQBAQBQUAQEAQEAUFAEBAEBAFBQBAQBAQBQUAQEAQEAUFAEBAEBAFBQBAQBAQBQUAQEAQEAUFAEBAEBAFBQBAQBAQBQUAQEAQEAUFAEBAEBAFBQBAQBAQBQUAQEAQEAUFAEBAEBAFBQBAQBAQBQUAQEAQEAUFAEBAEBAFBQBAQBAQBQUAQEAQEAUFAEBAEBAFBQBAQBAQBQUAQEAQEAUFAEBAEBAFBQBAQBAQBQUAQEAQEAUFAEBAEBAFBQBAQBAQBQUAQEAQEAUFAEBAEBAFBQBAQBAQBQUAQEAQEAUFAEBAEBAFBQBAQBAQBQUAQEAQEAUFAEBAEBAFBQBAQBAQBQUAQEAQEAUFAEBAEBAFBQBAQBAQBQUAQEAQEAUFAEBAEBAFBQBAQBAQBQUAQEAQEAUFAEBAEBAFBQBAQBAQBQUAQEAQEAUFAEBAEBAFBQBAQBAQBQUAQEAQEAUFAEBAEBAFBQBAQBAQBQUAQEAQEAUFAEBAEBAFBQBAQBAQBQUAQEAQEAUFAEBAEBAFBQBAQBAQBQUAQEAQEAUFAEBAEBAFBQBAQBAQBQUAQEAQEAUFAEBAEBAFBQBAQBAQBQUAQEAQEAUFAEBAEBAFBQBAQBAQBQUAQEAQEAUFAEBAEBAFBQBAQBAQBQUAQEAQEAUFAEBAEBAFBQBAQBAQBQUAQEAQEAUFAEBAEBAFBQBAQBAQBQUAQEAQEAUFAEBAEBAFBQBAQBAQBQUAQEAQEAUFAEBAEBAFBQBAQBAQBQUAQEAQEAUFAEBAEBAFBQBAQBAQBQUAQEAQEAUFAEBAEBAFBQBAQBAQBQUAQEAQEAUGgvgiUw1AvhaFR37PK2QQBQaARCOiNuKhcUxAQBBqPQDHwYnldy7pakEpoYTkZhhVbs0txwwwaPzoZgSAgCMwWAWu2H5D3CwKCwNJHoBK41uXi5I4LpYk7i4Hbbfmeuy7TdnBtuuMA7m5y6d+h3IEgsPIQEEJfeXMudywIaK6mW6cHrjz64vGD/3C8WuzRq07+w7ff9WcdW9PnhNBlgQgCSxMBIfSlOW8yakFgXgh4oWY5ppaqGFpX2dBaAy2IVU09EejihZsXsPJhQaCBCAihNxB8ubQg0CgEQk0zPF2zPVO3fNPQQlM3Ql0PxXneqBmR6woC80dAolvnj6GcQRBYcghADydOD7UQXxr9Bj4Hx4eajt/lEAQEgaWIgGjoS3HWZMyCwDwRMDTdhzRPX0zlWmB4RqB7OK0Q+jyxlY8LAo1CQAi9UcjLdQWBBiIAIztdnf6BoV2HXh4GSFbzhM4bOClyaUFgngiIyX2eAMrHBYGliAA09AD+cra3B/Ccw3/Oirqo50txNmXMgoBCQAhdVoIgsEIRCKGak2ZOJO7rmkXkjn+E01foepDbXvoICKEv/TmUOxAE5oQAFHKfPkiJamx1l5S1OeEoHxIEmgUBIfRmmQkZhyCwuAhAQYdiHuoOXxa/wQRvemx4l0MQEASWIgJC6Etx1mTMgsA8EVC5avxPFelqkZ7OKroQ+jyxlY8LAo1CQAi9UcjLdQWBBiFQQXc1FyweGoZmGqaLADl4zkPfNC3H1kw2w9/soHNU0antZu+TvwsCgsDiISBpa4uHtVxpBSHghp6pecW0Hjq2bnimKtgSGkyXRrysGcmSbiYp77suR8UP7LxTbfe10PLCMKaqxkxp4fwjZZvDxm4OVkqaFwSxoud1BYYe84MgMGMxvey6HeOu03epVIwhrS2gSHj6YPRF5yNdPqTf+8ulGDYPp+C5gxnLLtflJnCSKprGuIEW8zQdl+ciNxx8j2sF9FvKMqv1upacRxBYbggIoS+3GZX7aQoEAnes0ytf2Brkzu+wtUqS67Lplmf4tqu1rT+pZTccw0BH6zFYNwj1ca/avuf44d+4mBu9yzG0TKgbJtiXKRFMjBQ109QxiMDwLQqGw2uVwcDbUfTcbi1mm3hH6kz/pU+P5UZvt3W9AipHk3TdpfH5WmAjYE6Z6KHLk2AApg+Tfjj2+O47/itefrUe9+EEjlEOteRAubilEIYtgY6atLgsFcHR3MDMWNZYznfPtJl2oR7Xk3MIAssNASH05Tajcj8NRyAMPcOdOLZ27PCzvzR89PmPZL2JNtsNzSCMeSW7ZbLvriefabvlk6UgdMagIM8rTSzwfb0KBbas+a1nx0ceOz029AgarrQGsKVDgtBgGmAVOwA9U0YaCJ3z0+xAr+TRjMUlmo+ZGtWIGy7ltwxVC1tIBzdB28hoo7Iz+CxlrCvvHKvpxOZe6LVr1sm7XfebsAjoltKm53XEjFhwJp9f9+Jb+//+O1cuP1wKtTRsGqYGEwLG42ztWXXwlx64538vBd6JlGHVzboxr0HLhwWBJkJACL2JJkOGslwQCAzDKbRmy0OrKsPHt3R6o+m4Q3Qa1/qT7QW7fMca3S9lwIom7nhexASe1vwQZnZDixV9Z3Ux9Fpg/0bRNwPkC05nozUHsTMxw1XOhB4PQeaGTfnniqhJ7cZ7HPwdyrlm4fMQFvgPIX4n7V7lt1ElGhB8GFiVIEi4+CK6x19m5Hu/2Qyj25uec9zeoYqzPu8HSc2OURU7nD3Q2lxv1NXCuDjub4ai/H2lIiCEvlJnXu57ARHQQ9+wXHChnwBp00MWwNBtgAjjQSWBomxoR54sajp4d54HKBqJZqFhaaG/rrtzv5m0XWjoqVCHrEDm6gDmarwHNvY4stQsYkfYz4t2YBYH3equkUKh0/ehkUPrbk+kBpLZ5GjMjuU11yN7N43PwDWgwuvEteB6hNKhFo3t+27C14fTSStHtF8vQicngWcYlq/bFgkOum8qJ3rosuuARAv8I8G881w38vHliYAQ+vKcV7mrhiJAOqUBQzGZu1m/hKmbwsnIHxxQm1IPtIjupfOvymaj+6nvuWhtHrvyoc23/G45DFOQFsjnrTTvUEdwG9nM2fWt+zpEixCiRaAb+wbO/+KB0plfHi8X2kDg3pa1m39617rN32yNJ/tBpohKI62bxk/6PevodBe4LZwAQfHgXr8zmT1nsG2+bgfbA1QQH1kZGDH1GwSKul1FTiQILEMEhNCX4aTKLTUFAlBmic3JKK6s1VFcGf1KxDRvn3PtLqlLWipmT+L3gzC/TzmzP8ivXQjC+Nnx4fttPyjBeNBW9p0wnUgOrs+2718TT567GYKF0LdttFuN18F3ft21CBsmbsKLv9jOzz8Lod9sYuTvKxoBIfQVPf1y8wuEwBRZ1/ho2nWmXMC6Dit4HQ49Rl5xdZDaPJNTcnM1KO/V0Iu5VDLOhNUdqnsY4KcZHBnd5Aj4BTgir/97BJ7afc3o/hZgXHJKQaDpERBfVNNPkQxwqSIAjTKKJFPqOAWXNcuBfHUT5ndY7GHShsUc0fAODPHoj46ouMYeU4ROePGXwo6sHRIP19i5kas3OQJC6E0+QTK8pYgAUdCUpkyp23wT0femICWY5hAhpzlWEFYpcQ6m92osCCuo6N5oqUNdHyhRGACZ3EMORlC8Hq2GpsBwKa5MGfPyRkAIfXnPr9xdYxF4P+JpOCEhzoz/CzgQXjElvutIf2uWPaHRgkVjV45cXRCYAwLiQ58DaPIRQWAWCDQrqSPi3TCQW2c7VFzGRAlY5NNRbtos7m2h3nojMheCXyi05bzLBgEh9GUzlXIjTYpAMxDke6Dh1DCqGQMC5yrvnGBH+WiUt97w4/3I+/0C5ho+YBmAINAMCAihN8MsyBiWGQIqFo7/RcVX9ENRkePsVkcRUy6MgvTwBh6UlI6yNi4Syj0qKoOs+FLc10oY6EJFr8/oblUnGIp+owhC/oXdAUrcmNEp5E2CwIpFoKGbyopFXW58WSPAzBN6KJdOnuqEb3gJrrmGpDAwfNxDgRT0EqskwjDfOIEanGkgaT0wAgtVaVBBBtXgkMfGRd8beJAcRKgZVOuVhoMv6tGCUraoWGdRxTqqmSP56A2cI7l08yLQ0Ie3eWGRkQkCc0dABWRT91G0TTVQLZ3qrFHdUtCmi+++7ttU03Qqp23ul5rzJymljlLUkLKG9DXUb0fhd1SvUyXaGnhwmVdG7Oo4ov6tXLaehtZI3BoIjVxaELgpAkLoN4VI3iAIzBIBChcn4oE1OzQcfKGlSGQvDnRQOlVH1ywPGmfDNE2uAR+Gpo1iriRZGCBzInV2qTfwACDwUUDc0U3qIT8lX1CrGCP061Iut4G3J5cWBBYUASH0BYVXTr4SEdDNOEq16MRAZNKGjZh4m9ROygnjquiwJFuepScbFoBGjVd0zw+rucmyl8uHldyk61XQOKY5it+Qku7DKcAV6KOkOvA8JaQDWXGmr8THSu55Bgg0zoc3g8HJWwSBpYoA0r9A5iB1qj+uGyZZ3inOC63K4LtGU3IPbO/iXTY3OF30g+qir+noPvLY7ju+Xgi8VZYTlLb09L2ZtGNUE75hB2kYkIDI5u7TdzrIj26A3yEYqUC5iOYbNki5sCDQpAgIoTfpxMiwGodAEDpRazGqoTazwwurOhp86iZc0TZ80tXcft3goDiq24LHDMqlqeM76JzLueguWpm68+qHjiJvcHpTWRhKH59dXfiEaThjbvWtbDZzpRr4aVszq212fCBhWoWZ3XF93xUEHkwGpnaxUqHaNlTvBnRO/dspSg4/AUxEE2KYpuoDJ4cgIAi8BwEhdFkUgkCEQBCUbS3IZzWnPw3d2gpLZ5BxBnae6vI1VXl0WgnSSI30+wObeoXDlI5YM8OuDPfF/UqmAuUyhHZugMw5Yps4PiymNX+oR/MurAvL51zIACqlDfFp/ANxGWuhnOcW/RxZmmsebrLcuwP41/Q0I1UIg0pJNxKz8sl32PHxahhO0O3TaWPz6GZW8LyEo+sIsMOt4lxUWpZuFZJG1Cvtat3W6KYY9VqCHw2Cgu3LoZ7ydMMOWBlHj1bTAChM7DiXYZdCulktPRoENr2fJwK4q/PoEJrozfgD/BsEHKBViXD4Bw54auhOveODuKZ5Nt5mm1bD3B7y4AkC9UZACL3eiMr5liQCsH8bgTPU7U+cuUWbvLzZDqtIK0OYmGGid/l1bTtVtJaqL86tuqFcEgGHHrjCdsnNqxcvbA1HL21JBj6M6jrYjd4faHbg2sHEpQ1h//5H9fzAenKyU79vGOLB98gMJ36CTT5iu+lR59D4p3Kxo7asMcdP9V6KdW4+AM2ViKk8W/DR/nRWQsCNzj/puemBanntULWyzrcQVwcCBU36NqIBweoIAby+nCyDpriYcaOS7SaUcMsfKhU35j2nC5+LwT3ho/sb1XJH4ppplKpe17ncxF0FL2izdZPrzlNxO7yJ2s0hLID6v3Pzds3TfbSdoVx7WETwKpe4pZb0oWckQq2S0fVCXyZ7GkMozhYzeb8g0KwINDSitVlBkXGtPATCoBj3R488ePHAj74ydOyVx7JhocUKnFho2NACb+jnnnp2FOuSFuiasAmDOczAC0uJhDfSni1M6paHv0AdRKFV0lu1fKarkk+0j4dG3NV9EhpIG7XwKaRZo5Gpb7pmGNpKW1fKM1+L8tejjm3gMjCVmSmktn30xU0PfOYPtNb1x3wtU7KM2LwJerazf3Yiv+u1kye++vI7h79Ute1WWMcDy9cdO0TYHcXOg0yn3we0b74VTten/0Do9Ao6uPqgbmPUrXY7mpaEKAUrOwgbbA5dPExpRjlha/mYqSN1XveQqs6V7sjlDrIGZmQAAXeTsQMyBRO6rzkQlnQf5nrIGJgYR8to2tju1Wtff+qRR/7dulTq7Exbzs4WF3m/ILDYCIiGvtiIy/WaEwGy7galtFG4uNYaO7a51aombR8EjHorNYX8/QbOKWr48uFFRx04aJSo0WLB/OtXNfLCwxDPaqOPzqQU154s5hJ+Nb+a6NsMcA34hCEEsAqpE08ZHuq70KOJ36d78am8G+Lnid99Hznt8baesHjrCS2sJnFRUOLiB9i5IOfzxZJZ8MLOwWJ5TTkWtOhwL5AQAxnGgenbZnP4NNWBfqklx9Xao1IkANWSMTALjqUkKLoh3C81WwPZU6kZPZ5zvYxfgVGeTgrjOkEGSWmq0gwInYMPCW+WhNgjoiINQOhkxddSvtfeUypfgDyAIcohCCwfBITQl89cyp3MA4HQiHmhZVcTWjXRHuSTLZ5LtV+YNW52MFnTf6QSgtoN0+JkaovqnbFqDfURPuFAS2gVKnaGn1pDD2/GX4mtiJPYVa6S2hD1RQ5yFhMUKSmJQZVIi8iJ/PEQIDx7MqMFpQyUz9CMkeV5cQ82GoB4Nd2CtzuFH2O4X+DGVgctxknu0+2A5N+mpD4yzF+1ODAmSIonfR0O9MitTaH4yO/jHHl8xgGMPgUWMk5UugeXA540Q7Ve88TnynGha9R0hojcJuGCMMXPFcvRXMuJa8AKMQOuaOeLu17kaguLgBD6wuIrZ18iCDBnUtttsg/T5g/NHFwCBf1qUZj3uxUytpvQ/Ii9DSJs+plKvRKXRXHoU6wGIucQrVrbcSZpvD+iYtR6YdLmbLdp+dZKz4TEEEV4s0WAPklyggGWgmG/EVDTLZIowpXxyNpN905WCsQSwkoODFQZ++kHCy90kI08+gO1Yae+MByUAIGALRFc5QYWEqoCSznpbEqv4aLOQu+L5B11rghHhZ3KY6fPks0fchW0fGBmaBbGFoMQIOHyjVg0cs0FQ0AIfcGglRMvJQTYSBvCSB7EqmUt4xZC30bIFUgCVtlr7N7vvSsiD1A/czQ5fIljKTjeRjxWDBqqARJ3mXhIxaRaaDHNQQaWB4svURjr3WwJUOZ0JiGK+abfIi+6MlHXNHSd0ti1cphEKbpsTtNSeXIaNwpvkDhUaBcecwdtaFh3JqcAm7fhTZ8mlrz/CDkyjszqdKMsIdReoVdNzQIp+4EHwQmWi8iqwUKOC7Q5rl4dyhQPpHEedlqwgEauCwCM8EYLLg3LCF2cCy56DE4OQWAZISALehlNptzK3BEgj7cWaxmz2jeeNtfecQy1X5DZhDgqFDRhHlWHUpSvRrnzi6RouighA6amADoPVWQMw8u3esXBbr8wkoQRmurG4c/Kt25ke6phonsosFtzIWd6QXhAVDbbkmv0pMdgGiCSVjxNLmHQJIkF1NmFpAfTMlNFq3XDmdBIT+hmDHFkjThCLW5opda43d+TTQxUbKusW7jJAB5vHzFuiF6PJJQafpENXgXDqUYrKkQOYgHo1jDzjtvihXoalnIIWQQ5fOT4JWZa5VRcG7PxNpJ/OOofH0SeIHL6lcgDeQKl6TmPzUNoIQLtNdMKDAchh34Ar0DBN+Ig9WpnOnkxZpqzzgpoBMJyTUFgpggIoc8UKXnfskbA1GOeVx3ob7v1w9/PrN90DEHUYKWYA2qgaPMPcqRPi74COUNTRjR7LBw/s8s//eZjkyf23hvzy4YFbdWBKb9sxbWWDXe8ndny0Eth6/qTiGZ3UaIczVpqBeB98vyCj2yXW4bWyqUx+VGiFoXCQ3AAoUPTd8xM37kw0TFkWIsf3a4WRBimbXv0tk0bf9TR2XnKNQyLUsRAwWRshxJM36Y70alODPq8sUWEYttr2MJRAV95znFX7X3n+K+cHxzaDrZOG8gbII3cDz2/t62j/5Hdm/+4PZW8giA5FKDB2Qkh9pTwQTZ/yGDQ2XFyzh/Am0DoFGHguSB3F5KbqQdedyx2GULI2LJe1HJzKw4BIfQVN+Vyw++HgGF3jCW6b3ld6954gAk2pCIxFGJVC0t7zycj9ZncxlTIBM1WqJIKsqu0kbbRybFLGx0jfpvmV5KkSfpglxLiv1vb151PbrjvZ1rb9rdgBaC8ddLBYQ0g4QGErXlEgjWv+lU2VLZ4pa/XwuVA7uC9UqNmFfngoRP64/G2tgOr2zoO13LOIzPG9W6AD3ILIMRPNweqlY1nTp95vF8LNjhBmKZAQBVy4GtpEPCta/qe70un30UgPAg9ioeb5hShVHMOL2R/OyfFQbggoofAgHMh0IBc6UEKeQIoNNCQuINGzZVcd/kjIIS+/OdY7nCGCBhGjMKrqdDIvIqNhGGhjBzxSQ/14uC4BSFVcEoyJsc4URrh6JXQbMkFekfO0lMUzr6kjxhIHTcwb5M/qtbp+SAsI1rNhXmEuJzs6iy+kC/c1EMvEwal1kArIiCeOtGCrRc/VW9JT5YMflkjIFGey3p65eYagYCuZ9Aa1fCpz7ihg9bxnYLkiNRtBGORYziE9g+vsGiI0yYIVetQVo5C5CmCTbeU/1wdAAyFdwAe8u8pBh5BcoGQeSNWt1yzmREQDb2ZZ0fGtmQRQN1xag9Gpl/UEwcxcRU4AzHzCIODXx4J1K4NzlqyN7hAA4fHAn4HFFinEn0wmMP3DX5H1gDy1ZBOCDqHpHStT36BRiKnFQSWHgJC6EtvzmTESwAB6JDoBUL+cVQkRSobpaERnVPRGMq6mq59LubteBSN7znx0K0kVWY3oss5WpwczrBgU5kYO14x42nyEyzqUcG1L5QqOkk7EIjgJp8qrUOjo0hB6rQGb3qtztyiDk8uJgg0PQJC6E0/RTLApYgASol7MTATwrwND4o4lznhpDOToq/Bn05Dyo56umO5Y2c3TR598yMpv4zOZnpYtmwHKV2e5jjJjJmoWOu2H3SCyhsxI7GoncgSGMupQhHgUPYf3BXIMac6OhTchhS0GDVXiZIGxbKxFB8KGfOCIyCEvuAQywVWIgLcMYQT2sgfTASuGquo1OqoncgiAxMEjh4WhtqLJ/c/cun7f/o3O8pjqyz0QnPQUY780WXHMYe6N1xOPfjx7+9ct/UghrfovdFV1Tnma05OpzQ0JQBRahrbNfhrkaGTywkCSwIBIfQlMU0yyKWNAFmziaemeOiaxOzFujcuhwpTu1YY7TCunFqXqY50JEMEp1NJHHxNOp42EPoxf2Kg1zQdVLMtGbqZunkx+8W5AXYPLM6l5CqCwNJEQKLcl+a8yaiXDgLXk5CqNteAQzfilADGlusUStmk4ApI4MvGl4WvOMT7FsONp4JynHPn4V1vwDBrxP1+5C2k3oBJkUsuDQREQ18a8ySjXHoIQClXKVisVzaCGm+AGbVYRYcxeAEo/p4qrltIIKemLyYSu5Erj/FaqMzOZWgb0I71A6ZZNPSl9wzIiBcZAdHQFxlwudwKQ4AiyN8blN0wLTPUXXjNXdQ+RzgceJsaxyBMj7ucUiw+EsWQGobofD1W1c10w8zt7ECfOqYVy6t1bVlhy0huVxCYCQKioc8EJXmPIDA3BBpG3O83XGoGE1AteAga3PuFstWgmfN3EHygc/dwqsK65CvYzW3K5FOCwNJFQAh96c6djHxpIHAjY3vDiF73kf2FuDcjiKFUC8rcUKtTCtaD3q4CzDmkXJF9cx3TcWy6wTUXVDKalYqAmNxX6szLfS8YAihFXgt8ez/PecM86ihrwx1eyMiOLxA4faGGCyrZoRIbXqVmJtRhnN7X0KPR12/ozcvFBYG5ICAa+lxQk88sSwQ8qpKGO0PQ2Hw1wFq6tGpjHkXEcbM0NP6C/ot67vO+xpzmILAqpm85pmd6uo9Gcqhaxy3LqCwtAuLwr49aqwiEpzatDTpUkzRKQmfAov6o9IoOQWNuR8VDYRq6PXVQaQCcGKIMbjimCu3LIQgseQSE0Jf8FMoNzBcBJ3SsCS1sHw7dBLTUsN93dLTWLLRb8fG5nZuYx40FSO52VT13tBNBtTP8oPtlFCsPbD2wGkMiKEVLwgRFs3MRVc0lKsd3i9ubUVU2lj9QgX5u9z7vTyG8HkChkDuNDi3MUcedQvVQAZ86qdPw2Ecw82Oi5LY+v/fs506cy91XdbQECLwa+qjKG1SDR+/Z9vRoyd/TmTLn1WFv5qORdwoCC4eAEPrCYStnXiIIlHy/9fjIpacmipX1XjVIwQLtdqfSJ4rV8vfS8eTk7G/DRy8wN44vUv7QcM3R4lSIXLfR6TwG4kSnNU4Na8QBZzl3MeNO4/RdfTFFTkuRb1C5dOACIoeLH0ozLCY8rpgJNdr3TAdFdFX5vdnp6a7nxw8ePfuhl/ac/Vwh76WTVgxFZXEFr+D0dLRe2LCh+xBuXgi9EctRrllXBITQ6wqnnGypIeCHgd5fLXQePnvmS8cvXLi3VKrGrbjlbe9bs299W9c+3M8cCJ0su0j/Cm2vEsZd18jEPWjCldDWilZrKWXGS9Qq1Asd3dJjs9I264Tv7BixThedyWmC0Df1wIN9wKuilU2cCr6S0cANqy7S7fzQh39/lp1tVAsa0woCO4HJSJthAuUBfGjoXtFzQxTQgVFADkFgGSAghL4MJlFuYe4IIGHL8AzTdGN2ykknVrmoqhLapuYlbDuw5moW18PAahnX2jef9FfffaTsF9q1wDc92/Z0O5kPs2vPBWayEG8MmdfAarqAPRpY0jALG1paD5SLxUwhCLI6lbCDKcH3XW9tW8uxuG3nYXiflbuCRQIjphtG0tIRN6CbSS3wPGr8ErNs2zUM8aHP/QmSTzYTAkLozTQbMpZFR4BCrmDatT3TsF3d1NGlhE3PoYFc7TnWDvdDKzAzfWdTWz/0wzXdW4+YgRPX0QAlCAKr3fBMu2PzMTPeNbDoN6su2LTaOQ2uw46NPbJ919du3bT5WQdtVMkxQL4BaO56xrInOpLp/pgBVp7VwQX70KCeJAGeW8Tx4wQUn0jfrgbLzeqs8mZBoNkQEEJvthmR8SwqAjGEnZ+uFhHuTZ5lFZxua6YDXboU14w5+VUtdC6DbbgQa992ON6x4QhHjaOYi+6TaddBjli6opuZRhZuYWc5maJRLo590sovzU1klPecysg14EhbFvVhP1oNEANH0zFdAsHYEsbstPPaLVC8H/LyghDKeKixXQYaOrwicLlcU5SuAfcslxQE6oWAEHq9kJTzLFkEEM/tgm6riMTyzEC38OXavla2fB07/9wOE33P8cnq3D7d8E+pGvQNPOJ1Dhrk2H1k3rN1HdMa4gu+eqpZT3fZiDiGBqIrl16uCEgwyHKdWbmvGSOAh8A1Nd0hhbC2s0NXpYorK/H5gObeWDKf8cTN6o1ROh5ZIihSHuROqe5yCALLCYGVuGEtp/mTe6kDAqqQieJy8q16ppYAwyc9Ewlsy/Oo5au95+6WJ5lH5WngTVAFdOABwdTq7EjnQ5h9ea7zFXdXQugrbsrlhq9HgH21cCKj2ClVP9XQBdz0EQHt6npsuaGFLDDuqWZAQyW3MkWFURh5VE0mIrf35fslCUfki6fYANTNUUV02PhCk83GiIZ6F5YkpjLo5kRACL0550VGtYgIUCIT9Dbyl7OmZnvwn3tc16Rh5U8X7vYp1ozappZNK0RTNVR41bUERXrj5rk2W0B0By+EVUWe/MKNY/HOrAIhKJ8BwfL4yYeWjs40mml4DmrJQn5bFre5eIDKlZoWgeVqUmxawGVgzYcAqoaBuLGvg9aI7FAE1bXD0EFR8zkHxTXfXaoRhUbMDcx41UWLVKTp4RWQG1hOxaBRwJiF6HsuxwZib0ige92howh3KteHenNIHUTKGpE7taDhkAkPCIjFve6gywkbgoAQekNgl4s2FwIocM7e88BHsJStU34ZlRKjdLMGH0GlmNS9ciIMKnFqhQYrMSVasU2cdE7UhKfa7LVRXs9MKgONdFNUQ9MNy9Mnh9t1p5rUDNRiM6jLGnUqgc6KqG8mdRSa17xqXCvlumGVtv3JQXgfND80PRRkpf4o9BbS6vFqlOh3HURk2uZ4MwwO5oByknqzhrFMvmqmy2kjMauiMPWAnyQ1aOLwoCCZPUqFQ/ldVIpDaRkqam8Giz6metyXnEMQuB4BIXRZE8sSARe0R23OSNVMfEBOdQWdz664JW6xhoph6KFCHcLBkbZhB6alO9jvkat+QxWO/jaNSXWUc62rSutWC+nC2SP3h8MXthmV8XZTd5FJB7MBcrFB6txHhQzo00bH40To13QnOPV1o+g+jBaOhNJka3j6rXtTQSlrcfsT0lYV7QMCzS5NtBiXT+6svvHslytmS94KYy74zvQM33BQtA2G6gD/oTQrlWBVtmqKG6fvAI9em/odr6ATjG+5erKSXLdrv9m35TDeNrxYC66CSjIJ9LWDzQU1fVBDH4kLkGpULgMkI123obAnQ4d6rl13lIFWcv5d9xbrVuU6ggAjIM4jWQjLCgHP9+y8W+0er5TXlkI/C/Mq6aHVKASKuoVSgriKDcPqd0M/Me5V1u45dfxvnR4ZuaXsuam0aRXXtrSefOyWO/9jl5U8TxVYKGaOgGIdNSKyCDiOrIIF129PZc6324mLKAtXF1O9kzu//tIP/vyf5A++9mRysr8rpVRjanKK+yDVkjR2j26NHmX2gl9H6DViBxO7CPiDho63xqsTLcnScDruVKlRDDRvG0RHtVbgU0dZ1Hwy7ZUz7WOukagiOtBETXV8Q1I+N06xoKhD+NGqNoYytX9wWRryWEwdJEeg51xoB0WzfWLtI099q/uRT/4PvW/7IR3e+7kuuqoXmJcGc5tPnR25I5f3Og077ikZgk5J9YFUXRxcgV4mKSXIl8LW19869/l3z47dVaiYWcukEvGwSoSFwkP3b3h+17a+V1tSxnjoOhb1gaE1w/Vm+X/cFDeJoW5vrp5N27ndO/pe7+lK9Nvc+00OQaB5EBANvXnmQkZSBwTyWtB2Oj/28JunTvzWcLm0KYzZpDW6lGtOOzzYyCZSx/bs2ij8gjaa1J3THi+Xu2GCNU10Q3Oh1A8US5tePHbwX9qG6VxDVKTYUf9O0KmPRiGWBUIEMXbZsYv37dj932JdfXncxsh8byUMy4Y7fi5lF4e7YqOn16VzlxIZanXKFEJeX3j4cWOe7vL3Gx2UpMUEDx2VfMUgdPxiajbeHgsd7n/ODI/v1J+EzOhxr6iFxbKll3OrqLAdCuyAHMkijfeScovrqiAyyCws4zCVq3Fd06GNGBW0ryFRINabsSeH1+hOOaMSA8lZP7ej5HrJI6f77/vGd177u+cvVrYZVjuAoBgA19dQXZeFHOokF5qo14e7QplXD9Pka3YyNNJxE7/TMBE9gGmPxV978/wn3njzzIdhgMfSoCpy6p4oUg5kTr8Qr1PlP4y65G9a23rmN3/tqXxn52oq3SuEPrdplE8tEAJC6AsErJx28RFAHU99IvCMfLna1z8+tutyIb9Bi8cjUlO7L3LLoZGqbZqIzQp8mJBB7AbMrqQ6Yht30PEL7TpbS+PjrUyJUbkZ3r1JKiB1lpQ2Sv0iwqiUtVIykdjuVvuqYZCuhuHYfM3vMG2r8qsmeXpdtI+pIlgPpMLWYsWJNDZ7KuVsOt7MrlzWlQ4iYEVW7NhWFmcSCJigicjJdK9+rqCHO/nKLfjULbyBwuYsxAaSlgqVXHExTNcwruNURO7RMY3a6DX6In1Z08uabZZt3XThUfcNA+70+awMih/wtJjtaJn2spbsNrVOchbA7OJAvnAxdnRR4/kliqZ7ICWdhB+EOlKndZo78HRIbnMYGnwjm4JKnvJ84EmWGG5zq4IA2MYQ2Th8CE5YH7hKetwLLZJzxLo5n4mUzy4IAkLoCwKrnLQRCMAHHI4imBlEi84qgQ1i5q5ays9MWijCvyxFWMRmlMREicloyZmEXR7MxQZWvK5ahnsekRcrabW6M9FtgSCJ0Og0OL/rOlrF0uN4l2HpenW+ZE4XMfVY4Iyd9qBpkq+cjf4Uh08CB7qt83cKaDOoQMqUpXs6V6rxKWIlvZM/rMiY7oia0LCGDeM9/ZVYDD85FPlOGi+fCq/hf0rzYod5dB0Ogafz4Hd2Pk/V16OPRDzHAgLwB/V5GCicBU5gGTB+cEncuR80XJJ0DMOmeVQErWq+qRPTuCgtDWOGjEZzTiIEzT8H/8GmrlzjeANH+atYdz1yOwSk33PLeHU2ZXgA5uzkgEgDIw5NRi1+YO43Ip8UBOqPgBB6/TGVMzYQAfhOXdvU84lYbCKdTLaGVoy2agd2daio2N6hdEK7RBsvw4EKR3s/Irw0swJ/e8UD7YCsbFAGNF8nnUoVTWIyFfxG27j6Hm3y9CuirSA0pPSOZHw8jtafdqhTc5G6HCRrwHoABgHfEHmbpGkShRLpEjUSydZo5/pLXqU4FklgSVBiAWnNIDwQOgUAMrmRsMPBYkTQiDigBPzImk48P9W+pOamx2uc6sXnIzDUtfl8kcbPsgBZMEiV5fA9Cy4PC254sovM/eD6btCmQ68Cea3qhhZa4WAG9BDt0mHMCMMYzAYGZDuPbRGwlWMo1IIVJngAqFwVmHCTtj6q7V6EDx7rwDcsQI2hkviD86u4wojZIRzg3LpfduGzKRsB9bFfJjl9c58K+WQTIiCE3oSTIkOaOwJxLSz1JrPHbluz4etrfbdXsyzPDk0UiqGUNEr5QnSTiRg2HzFiSEn2zTA2qblrzg4PPT5YyPcGroeCI1bYnkwN7Vqz9ketVmyQVD5SVEHgFHOlVHbFY5zCTXSZisdzfZn2txKaWZj76K/9JLz0hgP+QiQ+0yBZqzkGnzRm4mWyHHDzsffnyKiirXo/a6rsHFa0S+RFZM6FVpShHA1LQG/oCceWCrAWgQYzPBG7igYkXV/VQr/+IO2WzstyD9v14Xf3OOjOD11wrD/btqfvRZLEko6W5OC29e0HkqnKhGGnQht1AwwyocNs4euxGIVCQF5DiD2mF6KJ4xjp4fHymomS3w0LDAZnssMCerfW3WFdacukh+OmjfhIqOC4AUq2w39ktnBJqCKxChnsiA1M+ut6E8fbs/aw2NvrtcrlPPVEQAi9nmjKuRqOQMKOl7Azv76uvfstjnhWodiculUbXE13JYIGpZlXqqVdPyxXO8YmC90uXOqkjnVlUmcf37jzP/XGUyep6sx1rMmW2KmbpXBu0pjxPmj0dUldC1ClzZu4FDh2tuBm1wyUQn0VxfEpxwHEE3j/mWzQIC4i9OtZvfY7xYnB++sanm1CjQ3DZLWQbSlPomA95ZbbWgVfCBqDbk5n1bSJVDaYjGdzGuIH44EXI4b2+Q7Jxeyxlx0md2q0+h5Jgl9hdwT9FR5zL+5VEl3DXrp1DArwnIPhalibcbO6dXPn21/O3jNWrngZDdmFKkhPTQe6rvLAKKne1NClFqw8WjI7n3355G/tPzrykUoBkXAxGp+DBVGq3H3rtpfuvWv991tTWs5E/IVyCZDEg1arpITTb1Q7DxmNge9amWQs17e69bT0XG34oy4DuAECQuiyLJYdAojAIlKdqenbu1AplsBQxFLkcCXHKsVGuUhuKqZ0YyYtUOdNVNdPgqHHQq80MdZ7+0efDro3njFKox226ZP/HznoUMtVu3DV5lSJF1MEzoo0uwj4rEzoNtFTTPe86mTWO3/0tsm3fvZRKyhGbdBJIiHNPNBKqS7P3XLr3r47H3o51JKVONzOAAUpa4QpBxyAIymskH9XI6jRae2K6rqUC4BPhVYB6W/xbbe8abS2U2T4vI4khIKKHwy3pmI5lh3QD5Xy+PhG1Vft6gh2JCO65g3k/TX7jqQ/bRojCNSHTR4f8GGJgFfFXdPbfmLX1u6fd2W0MYtMEjXQFHQKWmXV4PukC1mW6aL60LxcB/MCQT4sCLwPAkLosjRWPAKkwZNqxy1TI0bAdk2W54YeVqp1IpicfFlfv2N/GDhxBGp77I7mtCwq7EKmYbC8IqEbDTeidPARfAtwJYexwkBvDlXbRt/ef0/S9NptqucOxRk51loVd5xPtY9r63YezTz62a+FWroE7ZSLnlPmF+W/03VhiOAYd2XEn37UPBG116hAWznRSmNMtI0FVmuxHoAmTPYzzFiIGpx0yrBQYHJVaV/VoIW0bxjnQexJpBC02fWLfajHPco5BIG5ICCEPhfU5DPLCgH2hVMZMdL0OHSdgsXYbVwX8/l8wDJaWibwefqqy+HnL1cCFI1xTMvlgqfk9+YIdjJOUOQdZIREsqx19FzQNSLghI9svjnj4KMJDMFq69D1G3QgyI9K4lCNPRXyToF/lCnABXLIBBEYHsjdkkIxDZohuWy9EBBCrxeScp6ljQCXBpuy3V41YC/tu3rP6HW/GjPwFdc9y/RdeIwpb5tkGUr3QnQ/+tKwFu4jCAzuaN2aO5nTxU092TAir908kho4c42C9VRABZM5S3FR6B8yFucXfb/MlonczhJFQAh9iU6cDLt+CBCPo1gMb/gcR6d+IkN2o63u9bvJ6EzoUWIh7ttGQR1KguNYb8T/42apWAyiv9k3D7e5bnq6laxLCdu638QsT0hJaJyqp2wRJGYgZQFyBpLSOcJfueDlEASWPAJC6Et+CuUG6oBAlLOlYqKIxRENThHly68fuo70LD2GerEUzU23Vwv1osxylF5hbodGa6K92jI52PhCggss7JSAqPLqWVVnMr+2NP8yuWm5jRWJgIimK3La5aanI0D6m7LIRtVCFKlTGPeyI3QUcKWUNx/qN6LlVdgASTFcTIa7r1HqFqXCUZGd5XgocU35VLgyD/0y5xiB5YiQ3NPSRUA09KU7dzLyOiGArZ1KiSCbSVnYo/QnejbmLPAGFRQ0c4NYgO5gVFaVKpXQuVHtJDRs3bMzFoqDN+LgEjLXhadHGWgwQyMQnsMBG5WURW1vy54Xp/I5HkXxsx7N/c5QydXw0+jCEkPhn9kgR55z8pUjMIA6xbGRXaNmK8gsFz6fDZLy3mZHQAi92WdIxrfgCHCmGiKluJScSvSiBiyo4srFvud0OIOl3olT/btzlwe2xLjeLDXsDLVi3Ala1695tzxQOpzsTY3P6eTz+JAeOjG0N4H/nFLPSCMnBVWZoFXONck1ME5Qy5oGHBOOmzp2of+WobFiH1rCoEibhdKswA5E39WSHLp3fecRDGtW1fiIzpVxHUYJtkao7nNUx061R42Szxtwv3JJQaCeCAih1xNNOdeSRIDrmFMfMNLjSPmj7mJQCFFRJjXXG8qfG95y+Rs//Vsje3/2kWTgxKhCG/K9wzzaeq366Geejn/5yd/DuffO9fxz/RzlknOkN+ngXJNGNQxFMVmuce6ZVBKXTNGNMbmPFSutf/Hj/X/1rbdGHneLegb9zh3E6XmeW9Juv3X1/p7fevxfFT33bJobns3sAHWTCwEyGlrrcTc9blWDO0a7VfzkczlYOQSBpY+AEPrSn0O5g/kigKIyetUJ9Eo11D30G0OfDr3iBKC+WZl2pw/DzZdaCmfOb80fPdbpOUqhpA4rE6Ch5Ma7tjn5cna+w57b51VF9+iLRsVfbJSOAgIbyW6lipc6dW5o64EDF3c7ExC0YglwMbwTQUVLxq1iqeolURqOLCczJnQyPbCIgv71gYeS7GYc7Vxwaj1hU8t0DoCXQxBYBggIoS+DSZRbmB8CSV2fXJ1uOVRo7+guViuZjBXL4/d3Epo+OdczoyqZloBmmUVbrgyVh8eJSC90dFuLoagLdyuT4z0IGAjWM/R4ELNTmm+Dt+2kFlhwVrhos2KlUHqOA9VnBZ7JVXOoG5tL7dcQ/phkeQA972GLQKU84XNZicsEASH0ZTKRchtzRyBrxwbu2brz97dt3vy0E3jJhG4Ws7o53BaLX5rrWSk7CrXBNaPqaIZXRuGSmo8aofOwc1uqQWkzHw1R1KmfCxquwGMeg+EA7WLQGIVcAdyHFY1tax1bZwMchKego828srbXPJHJGN1WDG3fULsfrdkm21rsYdR7n5WAMJtry3sFgcVEQAh9MdGWazUlAmnTdMpheLhLC09QqhoIwIN2jugxajo6t4OM2qhaollgdjSLQbFRKg7vcx4cSrBxFngDj8Ze/QNunOProYVzwRdY1nV0giMPN7rPwW6O39WczGr8qYSVf/SBnd/avmPT665nxKgTG3rvUGPVYFPfqqOphFmXGvMNnE+5tCDACAihy0IQBIAAzO6kApbrBgYHnFF0tool55Q4arbN3mtqWgY7vBzvQYBaw5HHm80DkVVjejrhXCCLm5qzua/j6Npe4wRH8nOhW2VqN6yUA+vJnAW3uYxHPiMILBQCQugLhaycd0UjwBVLQBSIrUZ8NZE61TVX1cmiiquz0jIXAMyGmNRvfh9RwRd+o1LGiXhh32Cx6Oaff+87bPRMx6szaYM7l9PLZwSBpkFgzoUzmuYOZCCCQDMiwJ3KoflFReFrdeKjoc6JmOp0mzMh8kaOj2+zNgBW2GulfnRfNOk6LQI5zfJEQAh9ec6r3FXDEeD+Zew7R/U1/oIHeGpUDWfM98dnapBh4M6E/OuLNLskqHAffY8uH4G1HJvl1Bc8OdtKR0AIfaWvALn/BUKA2KhmMkaIF2magfqd/cQNqK1Kgd3RzVLVejz7NB5VYoXIU5VFDdGCLKS/Naj+K4ecqy45fFyVKRTBM9Uv0JzJaQWBpY2AEPrSnj8ZfZMiQC1IyebOPE5FR6l6CRckQ2U2uNehhC66kk691FAVjy5P9dIQP4PAMPC6hYJ4RhjTTOooCtnDCj3ki1USIZU/X/RDRQ1iYMzdQDCqfQOipwR0UdMXfUbkgksHAQmKWzpzJSNdcghc1SZVlxEVYw2uMpRReXEPHRnwYWgHvmF7jmEGVNGdRAzqDW6A3D10TK2ivSq6sVH4N77XbN6LO86rPnMmdy7zRgd706M2aYs9IrmeILAUEBBCXwqzJGNcegjAbE2mazZog4lI1aVkLDJqowEKSL0BWWtQuEMt5lWDuNPv2iXNs1tQ+5T0dvj3fa0CpTjvxyZb8HcQPyLQFl9BV81cFXvfyLDODovZpaEvvbUjIxYE5oiAEPocgZOPCQIfiMANqo+xn5oJnWlr0TV0EzVQ/WKplF6768iGD33uOxkn10aiBdLqEI3vmSnfjbdkN11Obr1jn2akyppORvjFPaIq8zc0DUQcXwt7X9yBydUEgSWAgBD6EpgkGeLSQ4BMw9RZnJVN8vsyfUdNSg1Exy0+nzOIYSxeSa3ddnTjE1/5M9MrplGJzXENC/VvUGA1dG3DiFf1tp4rgZ5ApbzZ9R2vzyypkjJXz3Wtnh5lAS66MFSfe5OzCAILi4AQ+sLiK2dfoQgEATp7gT8p/IxZnY3vCEtDmy+0dAPZNyal2rK5hvxQGFRGMB6YCszQ0uEzZxZFZHvgoJOM6el6olGkOS1tjtwVcBNw/3L1sgFrQtaKNWpsK3Q1y20vFQSE0JfKTMk4lxQCBszVKCaDmPGo5zjloaMLCJuUufQZyLOBh24kiCWvlyqIKBsjaURYMCoGxRfgi80cBCFlCMBVAekIsC2+Y7+B8ySXFgRmg4A8HLNBS94rCMwQAfJKEwFRcTNQETdlCTw04UaDllrhsxmeakW9Degg5p4qy7A6Djc+yJzy98lLQXxu6OGE5zVUGFpREyI3u6QQEEJfUtMlg10qCNim7cbNmEed0BF2Rm1amNSJ3OOG7dsWgs7keA8CpmXCpY9gPC57o1LWdHJXGAgnNE3fjMfLrVZ9fPuVqAeMTIMgsFwQEJP7cplJuY95IxAUfbM4MrmqWihm+WSIFDO5YBoXLuNM8uh1/iu7dflfrgqHzp6mj6otYQKu6cJrJze7ExMd5J2GjxrtP9GuE9biGAq4+JOF9uL5y9smjwwMOFQvJQgQf072eboOGEydeVq9NA6L5xdqzmNVGTXU4m3xfLK7ZdCKcwOShhwlz7Vz5VK2WHGTbCbHPahQdKo+N9Uo9qpvXGWTR/FtqqkaVbGzDNM9NVZcXSg5WSqCD385a+c6yJzeXqpUUpeGx9bvHxr30ugyT6V1UfvOoHo4lBCoIgFUYpvyudd+5h8JWnob/y2RiJfcIJzELzCbyCEILA8EhNCXxzzKXdQBAX+o1DX404OfHHj78AMp265Cp2ZCRx55jYymgrGI5lX0OpeDQzw48s51M3ChVyYty6+ePr/bvXx2i+2TEZkN7iAa9EYPLa169tTu0R88/5WJY8fvKJgeETrKuCDA3AfZk4UZr5GQQNdlLzxRPf2PH5RJmsUHDdFsfueuDYc3f+qBb+OliTpAMKdT5MqV7Osnzt6378il+8MgAbmGaJj6v5uInCdB45rIdYycfeNI00eePlXPQ3tytKT3YGrXxwvxtsvny5tQ+YYkIWJ64I9tCkLR4Gix7/s/OfjLXW3xflg5XFwFoKETbUTowAtcTi4NXB0yAGXj+XgR9hFg6WEkAf41LN00gw09LWc/99itT+OGidTlEASWBQJC6MtiGuUm6oGAd2W87+KPX/6F409/57OdIBoTwVkhKqhd7f117VW4Gyor1OAbaJG6p8q7QkvXkiDwtqqDoqoetEgogQiICzxXs0xHK1460DrQf+zTZct40jUcLvdiezHbCmJM/IHh4V+iPRYbWC+vGQNAetyKlb5KILnVT376RxvvueXlRhL62Fi5+6WXTjz1h3/y8m/5bntKJ/FGVb0FlZYBIAkofLBWzoSuIt74N37Z0IMABBxqaeTQtUMCSgFcj2BTgXGWrV25PNL9tT9696+BnAESnQQmD4hR6hzRBUDaJClQ+AJ0d/yCOQktOjsa5Hie5/umFdfdR+7b8PrHbtv6khB6PZ4cOUezICCE3iwzIeNoKAK+F+rOnotawvfMDqekraXqpy75vq+q59cMkGlJkQ1FZhMFx1D9zURl9CoRsGVAv8fnQU0Omd1hIDahNhpWVUsEIHqUS9eqDlRYBzZpCvpyoYmWuGIbdU/3wFW1K9NPSqgwo2vhE7huXotrSQcueQcMWgaFJhuT3A6TAgLRW3QnaE/53irN1uOwJnhsSdAMJ/7+gfM10zju0LFhcVBeA91K4iN093ClIyjOd5HqR2gYSc0LeuKokh91YgMOZDAnawV7RVjZ50yCAESuIXYhoIj5IE4R8sDXj7leWTPibjw0MiYQlxiihj51cvF6IyCEXm9E5XxLEgHO14IeZ1u6kwA9JzQHGjooibTmmgt7+p1NM74HMPHaiNOKQaOknisxw9JgD2bF0aGAOGiXoUt100FLXPbV1uI4L94F+7nSxl3uf6a6stFDScF0U3o5sxVZ4ZVf2qI0LvzkQVpI+oapUxO1hnnQYS2wdI9vz0az2NAmHAlNilXHgEHOtdCDmhZd82CQ9k2cD3xN8pPDehGQNQPxBiQI6fhOAe0GiBxaP95L70mwdYKIm9EA4bPrg2vrkrVdCQkMmQ7jABN7AskFhub5+BvG6BkTxPF+aJF9Xg5BYPkgIIS+fOZS7mQeCFAVGBsOVnhmY8RNJjRq0sGrzBM1Dfk9rnQmDyJXHWRBwXP0XyWogmhMEDxRkK+5IG1UZOOOpCZpm3pcK0MIAMXApAw/Lz5HhO5hECZet+g8uCTxYS3HjbVOvhIIiouthFoV76XP8zElYMwDhDl+lMYNsQTua7ApCsmygZ3IlP3ZNPBIfY7OH9nia3FrUMbpHuBMCCtsRdfNdCQEQHixYiB1Oh8JLXgfsER1Hsadg+bY886/KgGIf1Gd2kIds8e4VPAS3CdU6QdCVxg6OE2ZCuFetdXP8d7lY4JAMyEghN5MsyFjaRgCRkwPndcvOjnLKF/SEZxmk2ZJ3ElVWokglBdbkWfEA/yNOn3qWsy3uBgcFGbNgWYfB3G0wR6cJMKlUDmbfN+BFoemWNVsbdyOaRUr8EAqiCGLg7stfNaFPx1ED3txFPFeo8BIuyfNU12bhlSEkNCd0At+XHOtTGPM7TQW06/qsbBUtY1i0dByCVgonFAv+T56s0I8ga/hWt7kgju1g2UlCiqELo7oQF9P2U4AtR4qNIrRqi8WlMgVUYG1o+oipg1Q4i/kGQ9JhY/ewjEHzOQsW+l6FbISiRcWouKg4weG73hBHJYXz9Q73RAqesMWnFxYEFgABERCXQBQ5ZRLEwG3v9QyeujkXeOnT+9IUBETaHUk8ap4dtUAVd3Z9MdG8Qfp06gFFwbIlYYHOSwdOXF34YXXvlA9fnx9DBp7iEA30kwrMEnHbn3oZOtHH/1e5tZVR0MfoXFOApRk4bOu6gMegNyZlxTfsAG5Rj0orMIaLng/hCiQ3LDudPfd2/eafYl8o1AfL+ZbjlwY3XLsTHGX4SV0G+YK3ayCnFmPvg6vCMHojqL8NuBj4f2Gfnk4XPf0j478+jvvDNxepRgGCD8GzO3QqLXtu9pP/eoXb/39vs7YFRsle3Qf0hFDTwXk1GWo8Q3kCKAIC4vucE4gwYWCt7qNersVT8cE2G5Pmz7yyO2r97Sm08VG4SbXFQTqjYBo6PVGVM63ZBGwV6coheln9BW4iqZhS75B37ToFmtKO3EWuXLB5B50Uwvafu4HBy97p8/fln/33fVUFd2HPxh2d60QxrXeDZtP9n7iI99t+cTG18B+YViAYx0HuJ5FB3Ld8zFF4tOs/jV0OVGbiV3TM7MvDF/yXbtQcNs8X0dgngHDtWsizStMx1P5trg1q6I37eks4fY2CrUcoBsB2c5J8y3g7k+OhT37Dh179N2TpV1VN7QpSp3LwMLa0dOVGXjqozu+uaMvfj5zk2v4OBduCGlqSiyaPib0htVjFIXvVkWhWbJPqwz8RggIocu6EARugIABor2OVmeEE5E5vZFivBEYZ4BY2PPNeVbgJqoah1orgWdCi42uAUKeS3DWnEiTxlb2XWs453a/ffDcxwtlsxUlXZBx54eJWFDYsTZ1CG/ZN6Obve5NZNWYy+foM64/aZLWfWCoZAR+gYINoJ4jzxxBcFwylywWCL3znErC82/eS57InM4LY/vUmHyvYJhWJiAyp7/pdnzO453rfcrnBIGFREAIfSHRlXOvXAQ4CCsO3y2isuFP15BiRsFf5Ed3qdyJ0biALFClNThSWve1b77894cn9LVQhG2quJZJBbmvfnLLfyRCdyBvxBA2tlgTaJstLNSYPrViiYG/EVXIkf4UvkCBb4Qhv0VvsxCQMIeDyHwOH5OPCAJLBgEh9CUzVTLQJYUAlUujCHhEWlP6FTnQKbWKgt101E+Dg75hzx7l1pOdoOxl2gqutooamCEJTos5nuuiWjrhvJhkPn1eQ8PVPdOhjvGog0cV4q462+Eap0gEyR1fUg+CDHYxEWjYprKYNynXEgQWG4FaOJtyhL9HMWys75bC9sGTppVALBqGR+H5iCqzEDYOW3djx0ahgFwxjsreqkg3lTaoDvKI5z1Hl57oi72i5XpLAQEh9KUwSzLGpYjABxFjY0mTK7FQVBgdKlU8SrVv7LiunWW2tl8/8chFE7P5UnwaZMyLgoAQ+qLALBcRBJoPAerWHlWMJzWdLAnNROjNB5iMSBBocgSE0Jt8gmR4SxaBmt57zQ1E6dLNcFOknnPUG2vobNqmwufNzemioTfD0pExNCsCEmDSrDMj41rSCBBZshc4quyGmikRcXK98caypmrfRkXneCA1k7sqOIsytJwN35wH4yqHICAI3BAB0dBlYQgCC4fAe9Krahr64iWE3fDmFHcTnzM9kiOd39csBgQh7YVbk3LmZYyAaOjLeHLl1hqKQDOTkgpr5/iyaTFmasSod9NQcaOZcWvogpKLCwI3Q0AI/WYIyd8FgWWHAMhcma6nkSen102p6svuluWGBIEVgIAQ+gqYZLnFRiBAzVqoAerVPGpV+p3+o27eaBfSsCOKguPKa9T2lYzvlPsdkqe/oRoyRjMVecB5a9xKttbghfu0NYtboGGzJxcWBN4PASF0WRuCwAIgEKKvSBCiiSo1SkPpUh3NRVAMFgbuKjqpoR1ZmET5uAYduuWbehJ9R1EDltV0VLQj0QNtSWmMjTz8kJqiWtG+hJ5pKKFrcFE9i4L3DNTYa+Tw5NqCQFMjIEFxTT09MriligD0cwPNwE3S0+ngPuYosRrp7Wj4Wb/8MNcPzJLrJXEpqP64ro5eK9TgjXrBqARzthWwfQB0WagEyYqrJ1FdFQ3BqdEJWo7Sd5yggIZrY1Uv6QR+LGoih0Jy6PjOtoarAfE4MV7W0S1Wd9Hx3EtaNhVbn/ehIu/hEjDoTkg5pz6xhB2sCWggo6wcUerAvK8mJxAElhcCQujLaz7lbpoEAapJrhsuqIerrIKiiJRC6JmGZgeabYQzaBk2g3sJQkcvVp3UoWNXHh3OeX1eYFmmZaIROPE5CBwaLynh1DGcNHLdMr2qq8cvD5a3lqp6NoSQQSZtSzc119XiJy9V7nr2zeGvhoFjgftRc95DLVjlOuDSctwcHq1TApR89ypGZ4d1afP6jsO4xsUZDPemb8E4IShEoghkDB9NWSA2MHbcca3BLoGb3oC8QRBoIAJC6A0EXy69fBEIwIGh5kIT91krZx81iDPUbAosx3NXH0I39Fh4ZTzf8tJrR7709pGBx0qenTbjaJ4WUs9RUmehP6M+O7LLMQAQOtWOCS0DGnqiWNHb8Ap5raGfW5rvaMkj74w/fOrMa7eHIRwDEAK4pjop+XQPyKDXDR+qMlgdZvHQzVfv2L3q9ac+cccf143QSR9nIYQEIFLX4QTgvrNsL6i5CBvq51++q1bubKkjIIS+1GdQxt+0CATohx7AehyEeMyowxkIqozWoFWovgFVXa3TAf+3PpYLevtH9fUl34qjl7sy79P5qWMZmdOJE8mGTQHupLIj/M2woGXXCt/QayD1ctHKTk66Wfo0eQsMCAChTz+TlYEEAhU2BzGFjPpu30SwrlwJs3W6FQ1d1gzP863Acw30mUUHGQhAhJ/naL7nWFFNnHpdTs4jCCwrBITQl9V0ys00CwJkmw4S6VI51abpbood5r4ZapMwH7ekYsUgBnt8nQ5yx5tGWrfjVdNyQNJQyqFJaxZZBNBOLSSTNX6vkSGRM/wBMBTAw47Ga/CDayBQzSLyJl3dikGnJ32cSB7nICWfo/NJOUdHd+rORiQbuLZuJsD58brdi21ofsryStm0n0cQQtywHHgnPMt3IDUk3QmTEgTEhV6nlSOnWW4ICKEvtxmV+2kKBGI97ZeCWza+5eXvyJRgRg5Arl5YtWHYNuI71h4x25Nj9RooGdF13fV0v+Cg9zps4THElEHVxQWM0ARtm5oPSznix/EaCJmsBSB5HdqvMsETR+K10IEyjwg338NnIABQ5B55zEkoYLVeFaIhDR2x5/hcASpzqqIFTl2sDVWY+S+NFyu37+zY53gFveyFMTuWwmAQ3O61ardsbzucTVmTkIvkEAQEgRsgIIQuy0IQWAAEWnb2nrr/7335/9J/4/O/E4YIJtcsGLsdC1qtqWXTea3dLNTrsqRJpxLlwZZU4WIscOIgYMrcpvg1ImR2RsMPjf8CcLnHPVi8MJEsOWFXqCVt8orTAa0+iFnOZCqplamiO3myA89DYDxp6KSVM7+Ttg4fOpRyK19NxzNDllGdt4buBC6GWzV72mIjf+tXP/kf/hpEBnj9DXJMwIOA61EFO19rjemVFAL76oWdnEcQWE4I1EWyXk6AyL0IAvVGwC2Fup0CX5UpyAxachI/u4iCt+266JqFipM8enbgzpHJ6qrASMLZDV2c49JZoyZCJ2c0lHHfDzRXLzth6sqgt+0Hz7z9twulRI8XULAeIuLiTuG+O/qee/SRO/5cR748tH0ExetuSCn0ZLBHSByXdiFCh+IfBAWzM2sPrV/ddnpdR9uV+eLmhxUKpNctAxl1OEqhp6d0EoY0rYyoA13zjIQRi8SP+V5NPi8ILD8ERENffnMqd9RkCBCZswacVNng/HOdyJzOFbf1ys4tPfurPirGkP5tmF4tz53S5ujgbDCy/MMHXXLDxMnz5bueeyH49UkUvAkRqEdmeMsM3c195juP3dX6A1C/ZQSuBRalou+qmlyICHQQOt2EC++8YXQG5PNOWPq8NXQao6kn6NRTGNXInP6WNBg7IfMmW9synOZCQAi9ueZDRiMIzBoB22RNvxp9zeTzlX3nRsehxkema+6mCq94oKGajNNp67M510yuJ+8RBASBRUBASr8uAshyCUGgmRDIO1XT96ox9opPHZFy3NhS7s0Ek4xFEFhyCAihL7kpkwELAvNDADZzeNN9myvdyCEICALLBgF5oJfNVMqNCAIzRIDj3tmvf8OgWFe1VpVDEBAElhgCQuhLbMJkuILAfBEgtkZEGxLB3sPbqveJHIKAILAkERBCX5LTJoMWBOaHALUinX4GlV7OlWCpk6ocgoAgsAQREEJfgpMmQxYE5onA+5nUmctjyhwvhyAgCCwxBITQl9iEyXAFgToiIL7yOoIppxIEGo2AEHqjZ0CuLwg0BgF2pV93aSH4xsyFXFUQqAsCQuh1gVFOIggsJQQUl3OHc/6PjhqXi7V9Kc2kjFUQmI6AVIqT9SAIrDAEKCAuDOJh2S1bVVSGpSg4A/3GA9szg6BKnVjkEAQEgSWIgBD6Epw0GbIgMB8EqGEqOpf57VltGC1TU+jYYpu+67Un/aFkvH5d4OYzRvmsICAIzB4BIfTZYyafEASWNAK2bni9HclLn//EXX+Qr4ZtqCNjmuiqmrLC4tbNHfuraOES535tcggCgsBSQkCCYJbSbMlYBYE6IpBzvIQLXzr1UrNgeoe9nevNpBN2uY6XkVMJAoKAICAICAKCgCAgCAgCgoAgIAgIAoKAICAICAKCgCAgCAgCgoAgIAgIAoKAICAICAKCgCAgCAgCgoAgIAgIAoKAICAICAKCgCAgCAgCgoAgIAgIAoKAICAICAKCgCAgCAgCgoAgIAgIAoKAICAICAKCgCAgCAgCgoAgIAgIAoKAICAICAKCgCAgCAgCgoAgIAgIAoKAICAICAKCgCAgCAgCgoAgIAgIAoKAICAICAKCgCAgCAgCgoAgIAgIAoKAICAICAKCgCAgCAgCgoAgIAgIAoKAICAICAKCgCAgCAgCgoAgIAgIAoKAICAICAKCgCAgCAgCgoAgIAgIAoKAICAICAKCgCAgCAgCgoAgIAgIAoKAICAICAKCgCAgCAgCgoAgIAgIAoKAICAICAKCgCAgCAgCgoAgIAgIAoKAICAICAKCgCAgCDQRAnoTjUWGIggIAguEgB+4etkL4sP5YvtQvtpuxNP4VTc1Tcd/oWaGoU7f3dA3Y6bp9nVmLrfZRjVGfzOMcIGGJacVBASBOiJg1fFccipBQBBoUgSquqWdnZzsfPH1o5/ef+TivVamu+KFhhlqOogctB4G+CXUQrdgrmqND33mow/+5S3rsu8mY5bTpLckwxIEBIHrEBBClyUhCKwABFK6Hr545nzXc88feOrHf/H2U3p7nxEGfqAZJinm+PKhquNnt6ytWW+dv2vntj07+lJnAY0Q+gpYH3KLywMBIfTlMY9yF4LATREITSPw9aThG22WbXVrWlA1NGjuWqjD5O5DTTe1ql/UdCOAld32QfNyCAKCwBJCQAh9CU2WDFUQmA8C8IZDI8cjb9hagC86QvqdFPTA10wN/G5WobT7oWEYAVR28Z3PB3D5rCCwyAgIoS8y4HI5QaBRCCh2NpjAA9B3iH91zYaCDurWDfyO/wL6AtHzm6G6yyEICAJLBgEh9CUzVTJQQWB+CCCknRgaVA1dHASuSB1aOfM20Tv+ZOBd/B7SzkVDnx/i8mlBYHEREEJfXLzlaoJAwxDQEfimax7o2tN0mNjhRMfP+OI4d/qZvnHcu5jaGzZLcmFBYO4IkP1NDkFgxSHgIO96pd00hbMr1ia9HMo4yBwkD/M6xb+B5JnU+S/AZsXBs9KWg9zvMkRANPRlOKkr9ZYq0EDd0MGapmIpZhDAOWzUtE0QeKD5iPUi1gp0T/ODauCHcQOBYivkIBs63yrb3Tn7XGnnpJCz05y0deJ7kHpIpM7sL4cgIAgsEQSE0JfIRMkwPxiBShjo46Vyy7uDk5vKrhY3dBA1iAmUzqTEZdBA5ETq6bhR2tqVvtCWTORXEq4BhJsQvnPyoeNnfFEg3HTepp/p78LjK2ldyL0uHwSE0JfPXK7oOyEKOnLywh3//k9e/xejk3oXEzqIC2FgUNIN/OsHvu9ZSLUOt29sO/H/+IXbfuf+XZv2uEGg2yuktKkicBXlzqlqrKFHxV/Zj17jciH0Ff0wyc0vWQSamtBdaF12pGHdDGH4RA2LCl9ZK8eEejNMVtLf4QHWBwtO5/6DF+8eGUqu0nVUIWcbM0VtU/Q2FHYEghm2p1XL1dTQJ3Z1IDxMS68QMqe1wLYKrgqnzOu6Rv5zAgkkz7FxRPIeZCA41w31l5W0huReBYGljkDTEroH42AVG8qlUqnVdWzL8zRLt32XLIUh6k4bhh7ovqVDwTIN0wsnqlqx3dKdMCjpHrYhW0+JmrHUV+csxs+TbZpQQm3wEcjciwqnaLTEEdFt4isgEzx+C3QLb4T5/Rp78yyutnTfqthcPRowwPNPhIl6RWWqCZEv3fmVka9sBJqW0CmpZqLkZN841v/wu6cndplG3IOW5YHNseH4bDzUgpiB3+3WjD+5a2PXkQe29exPW6mqG1ZEs1h565pC4IJ4POHolqXyq4msyMRMhEVEhS/dMjTLInYXee8mS6QWEr/yVpLcsSCwRBFoWkL3oIUPjRd6v/W9N3/te9/b/xldT5maSeG4FH1LOUceKmGYaBDlGz29ev+vf/n+P9y17vF3MQ9VW0/Ibr1EF+Rch83kzYFv9D8FrnNA3LUqOJuaKQKei6awkur7oW7yupJDEBAEBIGljUDTEjplyAbwirteKlkqpjNhkIB/HGUqqboV5c/CYErbcOBXtUxL2Fr09QSZ2uVYmQgobRxGZMh6yvn7/osBvmIK8uaqaULmK3O9yF0LAssRgaYldOy22JcNOMtNT7ct/BTXDAO+US5XSfqXq+YDrG5YYPiY7ZKZXo6ViYCyDxNHo5Ap/uXkctbIr/MI47UAwZbgfRH/oqWiPOkEV+RbVxVo5BAEBIElhkDTVoprQXQ77SrwlmP7xXdY2slz7iPvCOVBpr7A+Ih14mohcggCM0VgpRLWTIWYlYrPTNePvE8QaEoEmlZDV2gRqZPMQcO0uBCGqmJFRTFYp8AXmeERvqyMrLIRNeUya7pByTqZ2ZQITjPDSd4lCDQFAk2roefJJkp9IkhPD1QTCUqPVb0dqe40coojiyrKhuBn/C6E3hSLSgYhCAgCgoAgsPgINK2GbrJuQI5O6g7lgrIdLjFDjSTYb87ptKSTu1Q6hOPhZmpPXHyY5YqLhgAHrJPfXAW888F9WK5ZHaJ5LtqEyIUEAUFgsRBoWkKnHdhD/FtA/ZnhI0chOKZ3JBnx1hyA6Kmnc4i/I2QZXG9T5e7Fwk2u02QIROFcZNJBzBtMO5HAR4XRuAIak7py2ai0NTkEAUFAEFheCDStyZ0KVJKfXClX3NIxaiRR+06huOpnFbEsZL68lubs74Z4GyUEOdRCdRFTZH7jQ9bL7BGWTwgCgkAzI9C8hH4VNVUN5ObHTN5z87PIO5YkAqpMDPLKqR1qbSVMkbko5EtyUmXQgoAgMCsElgKhz+qG5M0rFwG4YKjIf5TBGPnS2ZFe+5rCRoS/D14mIgGt3MdI7nwJI9C0hJ6iGHc5BIFZIADzOodZcIkZyoaoBcix9h4FylFLlmkNSmZxenmrICAICAJNjUDTEjqhRmU8WbmitDXepK/Fslbhil/lOCj2uMuxohGg2q/TlPQoKG5qYahFJOtkRa8RuXlBYHki0NSEzjQthyAgCDQCAXn2GoG6XFMQmAcCzU7oSveWQxCYCwJT1QTJ3H7DE8ja+mBcBZ+5rDv5jCDQIASaOQ+9QZDIZZcPAu8JhqvdmhDV8plkuRNBQBCIEGhyDZ01qxtuvtO95VLDXdYzIXBVCZ++ZKKsx6kFw3+j31B+Rg5BQBAQBJYPAk1O6MTmlEwcVfji6l8KfBXaFG3hekDRzdQkXfboOa5NP6joQeDOOVjMRSyaEzim78/9HHMcOn+MFzJloPNyoVJx/AsXllFteyJjlO5zNTnEw6MjgByCgCAwFwS8kKttv+eove5hPyijvKeDWp+hUzVD35/z3jKX8X3QZ/yg2jRjqfe9Nb3JfTpD0yxcz9iRm3TZTtBcJ7wKGceDIko9wrmx/LQsAEPXAxNf3P0GLIjOtCiki8jwwAepez7KszDQYD2t5AUx/A0vsADFWq0V9RmnR9pEKVW8aIw7rpa1PccCYTbiSONmvrnvXSQ6cIF/kvy4eiA68dHAuaePjhLCKCPMb7A1P2j/AAGwSDIiwYNGvQE2Jp/wi9LiCD9acBbAQ3VibhhkGzERJhsx8e9zzUro07qnJEX1PeCavyHWfYj1Tp2eqGejltBXxry5gafbhhVW8IyT3dPHYsaDrnsBIMEaVriofYHqb/IX/mDp1nvWdQXPRqHqJyYqDmPKjwbPQ6hNOr6eqzphvurpHk4SM4LANnw3ErnrvkJCXC80Pd2n4t96YkZdtD0MFwqMZhqJRXlmvdDRLawz3/cN00ThqwU8mp7QF/Del/Wp875mT5b01HCx3F4olVsKk4WOYrHc4nqe3dbaMtrV3jbQ1poeSaetQjqmuQnwd4xay0ckV8J+N1woth04fvqeN/Yd+7BhZDXdjHuhEfgWdsfA8GjL1G3f0r2yn+joNIa+8rmH/2RNpn2iYcDW3DMscNAWQ7sNGW6Ix7F9B9jC0KiPSd+svOfBIitDFR8qeJp9eSLIFEqVltFiviOXn+wsVUrpVCJRzGay49lUYrI1nZhoyyRzWdtwbF21EpKj8QhUMIdgD3000Kx82U8VCqXWPNZxoVhqSSYTxUw6NdGSTY+n03YhaZh+AQskswIse0Tm6GBpDLlabLLkZPLFcutEodAxNpbr8TzfzqSTk+2tLcOdba1DLdlELmNrbuoGAcnlwDNGS176u99/9df7h4vrzITloppTCDEZz4CHfQEWMN8wfF+LJTsS4/fftvbVJ3Zt/vmNBIO6rBbSRtDKA702dexZ1PkjjN9kPn2oJHHgUZfrX3cSWCVYtklOGwOROb220GRO1xBCX4hZXcRz0gKarPjJ8UKldSxX7hoZK68aGCn0/of/+rMdl67kNhY9LVl2nFSpVM5Uq04yCAIDm9pkOpnMp5PxyVQ6ns8kY4XORDq3trf14rP7+89s29bxTs4LSv0VN7vv3YF7//BrL/9WLLbe0vUMRHbXhdCNs/i4MjRTsLpbKMY3b8kc+9wnnvjzRbz191yKKsVZlgVLeqSkR3YbELjSzklJwyPvBzFrsppOn5p026sVLz0+Wlo1Np7v/qPvH1x9eXh8zeBIfnWhWG0pVYNU3tEyxVIl41Sr8VgsVs0k44W4ZVQycavYlkmM967quLy6p/3Sd/adv9zZkhld3ZEe6EjHJ5K2Vk1ZS9YFtCQsXhNOEBsvO5nxQrVteKyyamSstOq//OX+9QPDk6tHi9X2suMnKhUnValUU2Wsfcsy3VQiXkwm48VEIlZKxczy+q7WS3/6zKlLq1a1XunsTAx3tFhjaTwPvQmz0si1PJ9rF/zQwHNvlyqV9MBwuW9s3OkcGcqv/t0/3r/m5MDo5olytbVccdIVx03mJydbyQIVj8WrkFjzEHZw/xB2YkGlC+v5P/3Pg0PbNvScWL82dba1NTY+4pvV/qKf/ctn3/qls2cndxmJVt3XSb9nEx8eND8wyTrouXb3hpYLsXQ2/9BO83VW3+t8BGRmMPWQzPoXx4s9B48O3jM5Xm374+8fIc0EfjXYEjEwC3RvkosNRod4SiueGy7swVD66zWcIHD0amAae46cufdPv7dnuxlrrf7xD49yjSu6Pmyg0CLoC43EnGJsfV/LudtuWfdWb9Yu1WsMtfM0LaGXMB0HBov1vt9lc74CFnEZbUjOF8P0S2+c+dTzP33rC+8cPn/H6HCpu1w2QOJmykO7OsiFqrkNxxuQeZi+JvGzKtajXgu0OP4ct51S35rE5Sc//eB3H//ond/RE6nK8ERHx9Blu0eL2WhBj3OZMKljcWrcBQ8/wxatYZqS6WDS9a2GxmTQE2Sahs8NWcgoPtWcJcBWA0+6qfCYmNS6f/LKxOdf3VP46PnT57edP31x08jweFfF0+KlagjcCDDCzZ6GH16CmU7j9r3AjnSCwAMsRhCPaZVEqlzo6sjm7rlj91sf+8g9377vzu5XJoJguHWqFG1TLL26b6qNuKscCIisKC8fHbv3p68d/uzet44/fP7CyMZSzk+Xq1qyWjWSvk9zh+2NNDg6eE2QAZ6WPrmF2PCsJaxKJRW3qxBsKxs2rDq/e3ff4Sc+dNv3To57r21rt0YbcX9zuaYXFAxXj2lOaOuDBbdl/9GJe3/8ws9/8a19J+4fGcj3lEqEi5ks+YmYhvfxo4/OlRE4+Jnkl/Fof3Cw/Ctk1QqStlFpbTEnd+7qeueBx3a9cPe9tz9nJ7Kl82Pm2kuXg27yO03Fp9CeQs8ceD30HJj8Ar04Cc/WXG5oBp8xQOZgaRq5fuTd/rv/w+989/949/jI5jDAXqVbGowEFrtWqP02+cxML+zs1Yb+3//il//ZZBB+rwWkP4PL3PQtBtxtYxXf/sa3XvuNP/v6S7+spftoAyEBh0J1eA8BmbOrIygMhZ968q5n/vE//ZV/jj+cvenJZ/mGpiV0joZjEUcFOlH/cwpuYgoiUqLnk8lJzQm/towP3y+Cj9Jh1ffgtjaDc5PV9lf3X3z8hVcPf+7AwcsPnL9U2FrKYxU7LUABm5kJIzps6FqIh5PLnbJLWR38MEeeLwoew58dEGDVqaSK551tuW8e/pt73hp/PNvePp6bqK7W7DVQbKGd4/R0bmpgC287eF2Zs6G14/kB02MDaPQUqAA4Wh/cci0aDm3g5EcPMW5DGxiYXPXjn+z/Bd8LrHK+lC4XHdjjsckZ+KLNzsZGVwsbMGHApWeTihayQGCrVYhrkDkfPkmjAtPuRMFMDY+Fq64MHd+8/9j5++6+q/e1jz667QdXqu4P++J2udG4LJfrX/DD2M+ODN738qvHnnp977nHz56f2DU85rR7FcwbvL80fwaIyiAJlWaO5Vi1N5CVRv1K86kEWSdMJypFLTFWCFoHJyZ7jp+ZuOOtA+cf+tADG57/0Zvnv/3gXetf7WhUYMgMJ833qyBzU+vPO+37D1944MVXT37qjbfOP3L24uT2yYKf9itJJl0De4IOjgv52aCD8Ir2A35mavspOeCyWPWWUSwHqSIsHEOlXO/Ri3t3P/fK2ada21aP5sZivXqsh4Ve6MCkg7I2SkKShefM01wtAUHJsgOXfPEzvJXZvw3jJ5NcNbTsopdqyZUynYEXx63RF+6DQl9JCCdhDkJKvOqXHUS81DtEjzp4l6qpVL7U0qqF7UrhoXiiqbbNtP/i99KkNuHYWY/7gtf/aF5Cn8G91gg+Yij6xMItnBmMZ6He4ntFRGFZWgVWiyqeusPHB+78yetnPvnMSwc/e/jYwJ2lvIUnFkSupzQDErNy33CQG/YtPMC8m10Fhze2SDmv9Q0P4AY2rBjWvqcN9JdbBwZO3W8l41oymUJL0hQL4p5XhdRuwHxF5wyY1GlVUkCdrrm4YL0fk9kiWtudau10FbmzVIigGYiFgCTQqiXPHM7n2tjSwPJiXDNsPArY6KD88R5HsgkJkT5rc2ppKZsG/ZXfgf9B7titCEsDHycXxHgub41PDm49NzDQe+L0+e2xWLJyOe+/tCZrFgK3ohv24gTizBa5pfD+40PFvm9878Dnfvrq0U/tf+vCQwMDTndInl4rw5qhGSPBH4Imf9F8GPi9Nmf0SLB6zoqBWilEbvgZ+z5JtS5it0bHvfjoyMDugYGJnlNnL28OjI+HlyrBnrUJA+EVzXcgiBXmXt043u+s+cFP9n/lp68c+8TBd0buGR0NWmk/0GzEviTJs4yngENagRHLp2odK9leva7IhwR9eq4JQ6x/K45XbM0rl7WBc/nVA+fOroZ3zvWKlm0GKc2DMK8ZagfA8884esTgpCjAbG/YgbOQmzLnn9Kobd01EzHXjCcp1geyHfYyPJ90TwbNM7Ym3YTgkXACRP5xMfG6HnTLtu1q8TQUKaVU1YILWRlg7ZTCi7GXmnaApVr3IdD9LElCV6r71UMJ4Au5bOo69bM+mWmlwzz8YiWIzIeOj9zx9A/e/vXvPXPoixfOj63W4x2aabdpgQfrEpapxd1D6QGD1gwhMGDTI0eiK31V7Wl8qEeaUwOZzGCYxjux/ONx/IoHGi8Xi0X8i/N4+JtJS5SgjjYA+jRvkrRhMIk2eBKmLo+xXNXQlUamtHQeK40bwgtJ7fCtsXZBAXMMA2Og0gIYI84ToFtWxK3+ITKnF4ERayb4FIfl4M+JNDaShFbITWb2/Lz/oT/N7v07bjlInhsv/BRkPjLrya/vB3gJzOKY7ftnceqZvxXBXPpkVUt88wcHPvdf//sL//DUqZHtgZfE/tmhBZhHA+ucNksNhEy5HUxKZGlhUe7quud1MG2fYNdMtNFyOCTipHTS7Py0dmWw0Dn04rufSLS0Fr7kPRjvr4Y/Wx3XYe5qjiMIypDLk0geM7Ur49Wuv/jWob/xF9989bcuXxjv1eI9UFChYbMSiDXKQqlK0jQjM7sS+tUav9oTQ0n9tBMYhgth1lUCEkmrwAX6BD8PThE2LLjf4DlnqwjtG4qfcCY8BOyJw5cd2kFcN13KQFko1DiPh55BSN8+gvJo/pG+w4IFDwQauvK0kBLi4z+oLgbl7yjbTb3GRaoMiTI1Vya5HRhHvgTtv8CO0yvoqhghLK2V0NUTul23MdCplyShX52E92DBL/gIUjAXII0IoWDv2eCgsdZ1Qm60wCjiPFcN4m+fzN/++3/84j9/9bWTH82Nhlk91gsyT+F+abEguhRftGkhBh0LXPmLkYXCDzWbxqceYLpKdCuswYDSiM/Y1c4ZPRrSWZRGS4QHybamqNKjAIM7WzfVGSMNFYY20o/q9YDM+Twqs+7qQdROmrfiX9wf3SSJLTR8pY3XlBM1u9EGET3uZKJnxSX6G1sVGUsicwaPyZ6S4XiLhF+dA2DMDvyS0Z5/4fSnRkdzXePVh1tO5ivf3pZNjM/53lbgB0sQZMfg0nhl//CH/uK7b/zGqRMTOwKDhNgka44IisKEcG0BXscBEhIViSvBjTVFIm2aOExwjeBrHjo03FXaJWc50q5MOW6YT2i2OF/suz88+FfypbDF1j4UXCyFr61LsbO54QeROSL0jfFqkPzJq+8+9bt/8Ow/LjmJhJ7ow9ggxMMSxebmaaRCa18JNbzMa/9cey9MTKRrY+8gbClLRINljnDij0ZCEOQlx6+CQEiYZ5GY/4Q4tei9UDB8E4YuOskCHlMSG4txfKGpJDp+IDGLGB9Z3jgdF4INLwdF6HU7VMUUCihSG0jIVgtci4eAQNxaPAcJnxRhj8wYJAvW7fq1EzUVoaMoASzGllpxLHQpDVJphJHGxD8po5l6iNXrkCTVTrygh1q0BqInYbrlWjaLcRScMH74zOTu/99//p//Zu++/sfyhXjSsFpAtDCFgUA4V4NEYpIPaU1RJLeGJw5io8GLSknnKuoyIqRa5iivbpJksSligbFZDiZo8pMTiUMpZzM1SZe8QWChIqpVoU4v0XPCgWIwMS2gJD4fnJWxnIQbxcy0pymtgvdvRcT0oEWrh1wJiOFX5loiiCkRofYDvhMmhCX7IUmoAV4IBCK8eFViAzT0FsyPqR04NHrfROn5FgQsGZcn3b9c02Ln53M/i/TZBX6Wbn4XDuykg6Uw9eKey5/47f/69L945/joHYHVAesKhFgX65rlR3omac3SQsUckibExEU7BAmnpKmxDqfWK883J0/znNGaJysNbfYckUwCK5dhoBgJckG1xV5++dTHK8XJ1D/4m5//N4PV8NWeOGXGNfag7JYylugPXnz3C3/+zdf/erFkJTQrrQRW3qRgMeK4o8hJRPdHNSOmYktqDqQoWOmq1MqCEfxs+E77Aix9vDeQ9c/CesaTQ/iS9gtcXVju2CevMv75y6MCDb6huXjkEJ2yoIGyJhSqHD2rXBsCWjieVy2gvUj59umhpsx6nl+aMi6IQ0Oqu/KB5cNrkHYDji8ikZ8vGbkv1HWxN2MzdQ0i9Po/YjMm9LDqwtVYX/PA9Y/EFJnjDyk8re+Me4W4kYLbmJ5PPGok/VFgFttQyOdJzxVkH8P2s7ZWQfY+OzwXQjun8xpR7mIVAyHyCp0SiVgLWknFwbX2nhvb/Cff3vt333jj0mPVUjKp48G1/bjy7yJLi01MYBKSRCkjk/zdLog9JD8SaSX8nDn8YOIvICsV5UsPrYaHlJkM/ia+EXqQ2QxN/2HTBNZKyoSWzg8L+dYgkTOpqyWrNkukqJMc0cCD+qErGbBG3GpzJ5MsbV9E6Lx0sOlw5io2e8xjpFlAduc9ju4IggviBUjbps2Bg+XIH4egODKvs2mdoGKfPG18JCjBPMl7BJnfCVIIBRB+dMvWnGpSO3va3/Hf/3jPP1rT033+ctV7pSfmVyw9PiUqNBC2pry0g403D8n0tSMDj/7e1179R4ePTN4buK3AOMECJpnHWRCl4EUOYAQxExWRhQRmVz9MRMQNK7kPpTrAfLKJhjRPmNUh8JKG5MK0jPzgKWcRreWASq7Q3svSalIrV2P2nv25R3/7j374v3X8k8//g7EgPNpRpwjpuYJfcb342+9O3vbHf/Gzv73/0Nj9eiwicx44EQueUZbISWglEzo9uvQsU+omye9q7wx82hfwOxvySBmgfZXWOq17UjVpXatzqswBBBzSc0TuDewpvOJ5vdNJVYAtBStTHUYzxBOFP5LwMT0ve673fKPPkdW0oDiTN66a0oI74xd5dyJ5jasTEJVQhSEkwtSZ0JmaUYaHjd7k9iGfPeFIrkvaR1l4jEHop8BcX/csP0wtgAI0Y0J3Efnbj3zmw+cu3zI0kl9joHhAzIw5VKEHxf1oIwQFRyqbkjyYB6JJuGbjYo1I/T3yMdDPvAvTwvA9SFvEQ8/uOdNzZWByvUqvIBKhOcPDRsuSfL50EhBZsRok9p/N3dm+7/KTf7b3bMEIXJMroSmVq/aPOj+pTlfHd6M1Eo0Vcih+Ii9rAPMImZlNVPxxYUX65lungwND+SMF3aRcxgUjMfIInR4orfnJT9/9wk+e3fvZUtlKmjYFAMXwcBEOJEHTg0jmNXqeiLySrLVrpqP5zoRSsYmgIIvFYmYYjxnV7s7ughUz/WK5Es9NTCYr5TLE2YrhV0nqRnwdguACELhJGJMmimw0NuNHSDKuEWkqqZyR5dmr58M613Ox1SYaorLkYN1EYTBq2DSxyN7Bd9ctYY4jHyPtVzaC/lA5J5O0Sq0t2VIqGXOKFSc+ODzR5iA1hd7qu/R5bGwUi4iIKrKUKFmAhKfIUFRzSdDmFkviOlXt2NEru77xrZf/ZkfyoULrrt49vueGJsKA53qfy/lzoAP90PHBu57+8d5f2bP3+EMhyNzSEXCEuaRnkbUgZiEVSUyBnj4COnULWzksJb4LEqdA4wSe25jvZVvS5VQqCch9PZ+rpKolx/Yd5Xf3Q4oZQQAZmap5r4FWCjJU1kE6SVyrFF1r3/7T933/2T2/2vHFB38Xb7rYKPxzbmCfujy54U++9sz/88iJK7eXKmlsxrR4aW0rYV3tpcxkbIVgIYjkfg/x5wjrN7Ef6JajxRJhEEsa1Zb2lnIym3ELpWJ8cqKY8PLVBK1zj7Csgi0ReGhYpOWT5YKUAQqGI76O4mgUBdBmxMI+CcaceURVlhcQKHJ5IsaC73xq/5nahZQVQsW50Liip7S2ZdV7XCxPsEjBa0fxj6JBtpTwFqnYb6FQmTGh01jHCpW277/w1lffPnj+Pt+Jx2wz4SOBX5mpCCSoipB/iHlrUEXcrdZX9OLU9s/RweoW2RbBQqRueESgCK4IyyUvdfFccSsXJWQCx0NG15lKuyC4LK1Q8LM/3zv0kbOX9m2xAw/hYSgcTMoaVTUE9bMVLpLefCZ0RUHve/CEk7aLkmjYWMjEhE0EBlPPdYzQMhEc82tffPz3eh/Y/HS910TtfA4RLH558Y3jn/zBD/d/cfRKpctMdELrA5HAahRQdCmBRv5zJlh+dvB34hwyw08EbX1urq0tOZFtQXWslnSuoyU53tWWHd24YcNJG8WcJifz7UNDw6vHx/MdxZKbGR4uQoAqrh7sH+7SrFacB4EwlKrFeq/yx90MuoXCYzbnZTMra2PTPsW587QKKc6A3AbYyP0yYn18rbM1luvsah1paU+NtbUmx7PpWL4D31d1twy0tqXGxicnO8+c698yNlbqnJyotE7kyh2TuWrb0NhkVwAhjwMPidyjpcVEwCtbXZ99uMAxQCDRC8/v/+jWte2n13Rkr9y2JntuNvdVp/c2hdD1QfdCNcDPjbg933/uyC/99KcHPxaUdNOOUd0yIlwyEbPixzoWVzQhjRwBXOQO8qCN6zHkG3fro+s29pzv7swMtbclct0drcMtrdlxKq40OJxbPTKW7xoemVg12j/eMzhUXlVBEjcF0pGmSWROxUhYgSKLFPYY0rYqBbPl2ecOfWbX1rWHLpX8p9emzLoXBrnZHJN18PRwvuene8997Fs/3PuFcrUjayCORifXED2jTOhRACgsSyogjBQg4OQVYHCqhN0b0uMdbcmxTMaYWLum/WJHR3K0t6etv72zdWgiN9Y9NDS6enw07JjIVdpzE+U2pHmuHhoqrkJaKwykpFCoZ4nX+TXiqCJx9s6xhsHm/Po6q28G0NL4+4LJODMmdCqnd+TiWPr0kcu3vf3KqQeq5bStxyg3mYKGlJSG4EHsaeRjYfmZ5RLe0Ka4XMkqU6/VHsrp+y79naNWlQZOCRQ65weTWQyvIr2qpqXXiN1Drf2BU+XewVOTvRAnldbPZmR1HlbYuFkHzjdNXqz539UGrA5Cmn0heEBMECOZ9chnTP4omJA0VA3W7IxX/Oh9tz/r3u1TKO2CBMkQ94xU/NSzrxz71MFDl++Kx7o0j02FNBYkiQEHEjitAKkYdLv0GEN+oRrFhpbT1q6Lnf/Qh3f85PbtPQc2ru09tba3+1xnNplrheZJxZs5Jh4bJ3zuRhkS/5WJsOPs+dyON/adfOIvv/Hcr+QL+baK76FAh8rP5kprNKcc99G8B/nSphP51Y1FrQM2f1nVEIXCiqmMX1izpv3yfbdv3XvXbZvf2LK+50RPZ3qgs8UeS1uhh/IUZKzkWKoiqpKN5YKOK0OTa/uHCmuPnem//flX3/7k2XPDm0qFaqvr0i5Hmh5dJ5IZ6dMcaEyYQUCE7zc/Vmz7yQvHnlq3pu3smBf8tzbY/uESaG5QF3m6JxDR/uxrJz/77EtHPzVwpdIbR9Q2CUNkKOVJZMEpylYgWytFNuMxRNaQk0j6xXVbus898dC6Fz503+7ntm9cd7Snxcol4P4l0Zf4B3X67eEJp+NS//iGQ0euPPDMCwc/f/Do0G35QqEVzj4ljnFlL/VcBbSkuJBSq3b0yOVdP37pnS+sXdN5Gn/au8jQaCWYzg6eunTn//j2z34TxR+zutWGQUapqVM7LbkjSDDB7se29jJ+LmnZFmdi4874yYce2vnKru0b92/o7Ty7Y2Pn8da4XkmoSgzc+AHxI8YoaiaN5rzOi1cmN7514NwjL7186BMnTg7uzJeKrVU3ZrFFgxWr6eEEpDnV9lLYBUzTw/UXg9Bn8/zM5r2zmd6aOj6bz9T9vTMmdLoyZhEewzRCVdpt30RQlpZm45eS1dREUrpUTY+7RiWPhn7NazVdXSmYkUajtBt258CfwxI4aVVR8LLKMVUbJPm+KBZMiQz0uRheQ1IpTG/kNIKmj9fJZEb/0z5/ramDT8PWhWgRsmSptHM2v+FeyLREAkoIEysr/eQTsdCZDOo6hJe6L44AzQY0lImA50q7MlnuPH5mZKePxA/SADmQi2uTK38VRU/SF/knUG8RSRtlxBNM+us2Js7+vb/x5L996iPbv9tmhW7ctqoxy3LTxvt3TkHlpPym7lVXbt/e+faOTd1Hnnlp/+df33/2oaHBao9ldumEc01Mex/7Rt2xmMtqR44nliTNOWkHtPnT5Ku4ANJcdOCUSunFj35450+eeOyWH9yyvffAxq7EJYinTjpuVlCLx08aUPXee1Srfljc0tXR72zvePsj9619/lOP3/Lt51458oUfPLfnC+8cGdsd6mnwAJlu8VhhGhGwozQ8LmqB0ERyidjd2rGT4ztefevs448/sv2H2e7k5drKn8v9LrfPlGHiO9Zf7Xn25cOfPXW+sEO3OrHWSaiMbHlsfSF4yWpGzzj8uLC0mMZE5dZd6w9//GP3Pf34Q9uf2bnautCRiqGEqVWJv9ffTTnlhXzVH7h786rD996x9ZXv/+ydL33zh/t+eeDieJ8ewrRP1ikiN1JQsBw4dxt++cDsMl987dgT27e2vTPshW91L1LRGaSN6oZlhJdH8r37jvQ/cOSdS7dosfWI8YJAH+1byrCrIqd1EtkJMx9GBH9U612buPSFzz/29c9/fPs3NqzOns8mE4WYqXtpy3QSN/DlVkO30p2K5TevWnXxnl1db37s8d3ffW3v6Y/95KUDn91/sP+eUtnIBgFyvlnoUbumCkchL7XajSGooiAqGxqb7vigxkxzHGxz7H+zGTw8S9ACVUlFZNHjZ6rGQ+ovRfXibzR1UcTQ9Lu70Z1ORRSriC21MKbYXpE6eyLoz0SoTGS1n+mNeNg4NSNKK6Icadq/aVHTBs4sXpNXlL3gvSZjtRDpf+Xv4YtFBACiBK1SXiVpAyE0YTxTHHofWKBPExXNKVCxzgcCE2CAqGiTbpg8dGb8tv7BYp8Ra8NGooLQiCCUwKSkcvJwEOwBgrjiLeXq7Xd07fubv/zE//3Ruze+tLk1PuO8Z5RBrNnqBi7l/e/s3t21/2f7Ln786R8e++pbey/da0GAU4ITcV0kABFcURkoKhNJQWl1hmNWp7OgEZiWBSqlhYHIjmh6lM9FaXe0t6/v67z8xcfv+uZHH97yo5aUVkrBFEOZAOZNckLj8L7gJJSLTF+lshNObGq7Z2Bnb8vpP/vBwV99+efvPOr5LtR0mCVZsETgHc1NFJRHaws+c/JhWkdPDd7y6lsnPrrlybv/bFY3uczfjL4Eqdf3n/7IO8ev3F4tov4gAkA5cwOCGLv2gCkHdvEzDkEfZG7Z5crjD9/y0m/80iO/d/8tfXtWdcZHUN3tpt1xs3EEmmAux0HMre13jnZ3Z678zn/+3j8f7i+s0hF8R5ZBH1lqJNSr1CcKckpr48OTHUeOX7nzxLnhXWU/eCdp1j1i+r2zHGm+Bw+ffOj1ve8+7ldRLCIJawJvnLDK4e8EE9ULVzEF2C+8Er5GtPvvW7P3C5+/6+tPffS2b2xtTQymZxClH9enYjtoX3DGwvDI6lW7+m+7vXfvK29c/vif/OmLf2901O/gvH32G0d7KO0OHJoWHXjgbiQwNHgZN3SfWsh7n5WGTtOkDFFKI6cMTvik8auycsIYzBrje1ytU0StboUnf0opZhEvkvFq2rIidPVm2kNrbnl1IkXwNVh4TBwQxuPj11U0MjqIXF1YfBYl1V9/qPMpIYEHRp9lkYAkBBIYcGeUCkG/wr9mwPxnwG+KHMsFWRi6mQj3nu3f+Oredz9RKGgZikRXbnJ2IKggRE7FIHcARZq6mp2shvfc3bvnN3/tgf/46Ye2/agLEXxzXThrs+YkPnv45YsT1bPnSjveeu3UvdRtrTlC3j7ormrmvqlVNmXNoTklVw2UBo06zHV1xobas9okiacc8DiHAg/JGJPG5f4J77thPIFGVAXjtTdPP4xQtzhtrLVc6FolLkVCmDeQ1PnzExt/+vPjn/jEQ3d8H+cYnetcLZfPOUgXgNYdHj2f7/vRc2/+wshQaZWGcsPk8lCli9UeQx4VttLxb2X0EPCLD96389Xf+PJj//mj9/X9dE3anHEDiAriH1BunJ6hYHdf4oz5oU3fPX5w233P/OTc58ZzlTRVFmOBvmYV5K0PK8aJGWfPjG3dd+Tcwzs3dB/HQG4qPMx3nuhxvzQRtP+7P3j6kaPvXLqVYlw0BK1xkhSGRSVTVBSgyurQQfK+N6o9cO+6PV/90j1/+qkndn1zbXtieK5FXjJaKYy3miPtt/WMpdNdY9/+1su/MjJUBaFTmT11sNBcfx1nptDx8pjpm5fr+97Lbh9wp1EDbSYxladJ65hq5arqTKzv1tIm2A9d8yfSZa7+rnzU01+LDPbKmsZrYkpj5vHwmflrKqCRf6cHjASKyBvOhQMUIauojegaLH4oQlTq+Hu/FNHXCF9p7aQF66Tlk8mPM7PpLFx4hTpjU9Bd3deFg9LHRS80j58ZvfWN10592PdiFgUeqoYgSuggnx6n6cAqoVOdC38wvH1ny/5ffOqO//G5x3Z+r8PyseXMv+9uOhaWs5lYjpzA5PZQVZNvIMPwfN1AUqo7Ojc/IbVG5fhHOlRUq9rkeP2BCCiqWavqFbg1lKpNm+L8WimubrVyn3h47bO/+sVH/mjbptZTMctxECxHDklcm6KwIycULTvCEOU0C5Nh9uA7Q3e/c25i9ygS1G9+Z8v8HcAqV/bTR8/kbn378JW7SyViCqqbX6tBFkW0swENP/uTWjpWzD9wV+/rv/XVx3/74w+v/clsyJzQpF7oyFCgsh9hSquGG9tjg7/42Uf++7at7ceMWBlrGgF2TOiKKLneAq+rpHb5Snk9xnn/MGrAL/TMuHByYq0aB04O33n4eO723LDfTrn4tBeh05faK2tWRngBA6ToacGE1tsTXv71rz78Xz/7sVu/vqE9Nmcyp/uL6Wks0ip2wzBsz5rjCTtRoZRO3hOn0ehVH7pCaqGxic5/ncq4SFdtwsvMitBdjn0joiSOMeFTp2Id9DsteMq/o/q5xHM3/yLTJ5uLSNukB5RSILiADgUSUfAbfqfzMGFHGzMDGBFvZEJVpTmpSlrtXOoz6nN4jXiNiiyQH4yvAzMdXpv+RVGy1MeXiwHQd44WpfNED3NkxuLNmB4tE7kv8J/XKvnVc16pEeHZsXLfW4dHHjp1bHA7+fIQjcfaOPvx+MlVFc4CB/59J6fddfe6/X/nr3/k33/1k7f9RQtlEfr18e17VS/pov0kSUCEEVU/up7QWfiiUZGno8Em96l54GpxtVgL4tMoX57yKKLKYj5q5dIKyajqJPM6ysiZ7sxoE5/+yPan/5d/9Ff/j+071h1H8WvO9+fUSnbjqPGonFRSqVLaaL+3+tlXDn4RLUCz8xrA7D487/ud3eVu/m7MBULMreDMpdzWH71w4EtjQ84qHXUWuOALra7IskGrnmvn03MYTHqf+Mjtz/xv//BL/+yTD61+rs325lTsxUdpM/jOUNAqFXbHE6WH71r78keeuPNHvevTA7gGm/htEFet7Cn1zNLNpJYbdlv3vnn6ob2Hzj8y4HCC9oId5LiBJ9x4+c1jnzh5duIWLWzFdqDS62g9cbYUy620F5NLoqh1dRv9//pf/41/9OQTW77b12qPJWgznecR01sD2qKRgRmHiE8O+vec8WqC0zwvNrePz0SAmDcOcxva4nxqxiZ3KnBy+PKE6Ttl069MGoGD8DcEaqlybuRDR7IYER/lJ16vxV0vP7GiScSsPss2+ikneqRV89TQBkzBHZQzrHzkV231nBLB56CCKQGe55CkVaSvqJZ1tfMw4/DmqlqH1LT4CGAeG/1TWwvq/SyRs++AfFJUVIWC89A0Sy9rQdxFnZZiLPRx03U+iHouD0+uu3SluLEyGcb1NJn9SA6hjYxcCbytceS0SQJPUHE/+cSdTz9wR+9rvQmrGJCsYdenYEnk2mDgSWZDctCUMEF+6asmeJ6YOiMxj9NxFGPt87X6BZGBg9EztCS26Xq1SUGlH75aKfALj9y3+oXnXun7/LkLE1vyYygKzmHuZBYlMqdUKDWuEMJvxdFbjp/sv2246HTgpbEQAZE6YijmcedL8qOg07CIYP8f//zy2qMnrtzqeYhJpw5eWGAsitUwo0eTA2Uq2tZN3Wc+dN+mF+/anj7chcYcc71xFKwgvP0QPXN1ywpxZQfnfqen07py5XShV6cppPhvC3sAx7CA4BFH5FRjWm7c6T55pv+2x+5Z+1OcY85juNnYERFijFW0zBGsFWRaIKUUYyIfOUWxk1uAyzRT/Cf+dapaJuuX77qzd99jD616rjttT9azqAtlyEAGRhw8rABU/57iRaKy6CooLtpP2STK7cgX65gJmS/WWBp2nRkTEpI0w2MDE5XeDqN/3QbtbDUIUGqQsgwtUrYVC3LxEaqWQ2LstB1erbdrXsNMU4aiiunAxEM7Vt98Vtu5uxi1F5nMV1uq5TCFhHel0fOOqDp1qvKOeA0tLjMtCacjro8jcNNxTQt/pRhjqGZYfCj9h5AvG3EtVNATlUPoJNOn/2ouXbTb1uaDnhg8TtSqB8M1KKUFtQ+TaX2yLWVMIqS87g8xHhGjv39iw1B/ca0K6oNGh9wCMvtzaUpVwgSbDEVOl7Xutamhe+7d9HJfR3aIRm3Y9SMEFwERnuaAkRySk+CBIH9ZZD5WrMT4c4U01batYQuZ753GQjs+F6FWcRdU1Y5JgMwbNGQIZ8jUM1GSciq5oV6DTsG0hPrakw/d1fnzI8ezdx0ayd1GhWd0ylkAklx6kyLd+VlxUGzG1S6dGl5/ftTvGfKCcyjgs+C+2Hrda73PM+ToyXMDhQ2XLo32kUuChEj2n9Myp8ptLPRTKpaLIDi/8sD9t7x22x3rX58PmVMFM+YdfFHuKTWBoY73q1e1XujK2iMUIW6gKzAnSvDioTx4iuKGKR4FbFA8M35+YGxjERxfbzymdqCgqk/6vjU4bnSfvzi5oZT3IXdQfjmlnaiCRiiyynEFSlmxtI6OcPSJxzY+1xvXyq2qmkrdDtoqqZMD2pBjc0LUv1Ivogh32h7YGcv7BO26ixzlvuJJfcaE7oJvR0vVyc89ed837rx75xsVP4HaJElOZiIru6reBK86RYEzn18Nj1C/XiV02v6Jt1U7DypMAyMatdPGIrCRC4aAorCMBTOUd3peeeHdzx56e+gurjXOZUmVNkiVyyg1g1ZrOm2U7nx03c8/cfeGH7Wl/HwRu7YHqZpa3HPKCSwHJjUXADNGaR3MRDXZP5Iip17jnZ5yO8l0WwuWpX7COA+uGMSMcnDH7Wtft03U8avzgUKMxrkLA9svXRreoNuURUAIU7xCzThBYJLt3YPSEAQ7d246unp14lKS5J86HzBvqgoeDBBNISdVR79etWjwlDQBodOsMQRTFZqmA1IzD6qsiMi6UPf5o3oFt+7auHfjhsufOrR/7DZep1wut7bRqQdBR7tWH1XqLl8cQTGf8Q3lLZkDGO2KJfQxpGievTiwbWwo16YnurkCJKVjEp5T00oYch2IpNu3ecOpMJ0svTla6jEhJfH7+Bkh4ZfqUAHxKF6WAb9qgpva9I8Pl0hHQEgPv5Pj5118Nu/HYpqdZrOhT3Z/khExj9idmDANLocKC0s1SJ85O7y9UPbJZTJW58ePT2cY8XCoXLVPnxu+ZXys3K2EaDpoeGrFRy4vhRP2hY7O9NBjD97x47gJTafOB1M16V0sKZMVNIpMqm0R9Iryv1EOPJJzVq6Q+gHQ133fqV1rxoRuQw+v+l7+8ft2/rSCoGAXznSYyqjS/VUzCz05yt/9gZISS3mYcyRoUblY6L+o/EvqOh4cGNgpgIlKIehnR7w1F09N7Dy4/zIIXZE51xCvPeNkFkfOeSYVq9y9q/ONX/jYtq91IoIZ1ZTgaUPJFaqnrUwAJNuz/eDqErwh3Cx4qOcf2wTfR60ugklxy/zs4KExUvHQSZl4sut8oOK0cfHK0NrhkfFW026lhoBXrxA9wzS8AJoKNBdn3drus+m4VaqnWe2aW2IwVI4pHdeuxOvWZRP40MnmMwMxvbZslaBZx4NsA6u62i93YlPVDId4grUWrjxLNcNp/bJ2RXo6aom7njU6Or66Uumh5OcZR2jPcch1vdc5juGGHxvPFVaNDk+splARw4QGWvOf10xpzF1keElqFddJP/fykb/y1uGjjxhGCQEw6DPBxEbGQg6SgI1GaaaR0M5LYkrgmyJ3epDYl0XWP2pqifdbWqViJE+fGtmpJ7tA9qgJj+AhFcBCX7QFoCwy6g04TtW8cDG3MV8MFjQGwvU9+/z5i7sdBymRXCxL3Y0KHOanU2nFdMtQjJJJrbCmp/UCiTb1nKNoA6CKVNQL6/0fM96fyXIHDYqUgsU7ZvDoL95gGnGlGRM6DS6OIteLsOlM4bB/oFJAjHcVDyzZknl1UuS5Ws/RgsZ3eoTTZlDpTmjFXhSTaASQ9bomUcBEoZotlL0YctJVoH60FUWx/EpDp6Y0dlBd09d+LmGTM6v+BysmXJGFBClVEVBNQs28p3bMWr53/Ucw6zNGPhi1oajo8sU+dK2jxcx1tBmjuulA7qrCrqR6Eah6BmRIJgahjZkCSS19crLYWal6FLa8Yo9C0WnNFZw25O9TkBqRMxPVlHZOy444C8FgYdU2jh3uv8cwqdcXuTLoA6pNZyQHsI+Zf79e5rweYTLCqU/SalfPGkouovIfyB48TTX7ufMYBYUqiiSBjFV6yPrFQiU9mnO6hpCpsCo2d1/+B008qjOaudxEF9E1JZtHbSijj0T0TtH4qEURy5hh16r0YAqNGBck/3uaZXNKyr9u8MoDS1ZFLjzXjCRbf0GnSZ7cWRH6Yo8Z9ZntIKCm8aqusnrwqBY35HAsYCosQy9BYkRJc+SxUijqEj+qiGkrO3BOcfs/CsijzQP3ziqeMk2obQ5mEitw16/tPhW3uUBG3Q80dIBRn9uJqafyGn22ZibhzXBq4637IGZ3QmWQZPM/OX5oXMrL+N5jYZ5pulIKS7M1a+Ra2mKT+fGgDQYd6I7Yi6c61xFcBCYXLLImYW523YDq+q7Yo1D0Wgp5B+3UKEWULEI31i/JbkZT6jrUT4skIhaK1OJkJ9rV5iQ3BZOXQPRZLvCrNHDaaEwKxiUGpeaO6EjG7UJrNdI5VE/9R9rq+MREV9VvoRPV3WJHI6SIcgh9La6DsnBoFHPV1qDWMMUXcM0DZFa0tqbyvatbryyYUz+6In/jctDvc6jI+1qe8U2nok5vWJiHuk6DW4zTzCptbTEGdM012DGmHGncWYy26OiB4/KCvGjIDk2/YddcxJDKhcKiVPGTjkddFch5XovsV/fKGgo/4By0gE3H93u7Wy7Hrfr7ytRGQVH0kWktSo1R8YSRH68W1hqJUVxHvYEHl5q0EH1Gh/LhvUdDmy58LMTTT2EXVLmgPZMc62hP5ygrTkWDRiWNptao0tJ1K2ZMFsptK1lDp4YjE3k0vEHzJ8r55myO6dYVWnPkNOP0WK6LCKJFXAyC56gVKmXBUP9rE1o5ylNrNr7Qmhbf0WYYld3oO9LSrvnZRJ6DgZRQ0uQNKPcG3CEUMU5fFuIbeGkjvhShb3gUiadpVlX7UFVTgwQIyjqxoM37cZjFF0w5IqFhMp9HqVVckHpf8bOpjilXGD15yCdrabVHe1a19CN8dSGWd+2qlD7IfiTlBo2eKraKKWteNDYq77mA43jvZjMdl1q0Ac9ltFdNtVhuwD6l3CJKNVKWz/ofTU3oCGSjHTlye9OqIQxU2tFUQYNoRVOgdf3LvNQf8A86YxnacD5f6oC2Rg2JFXHilsmaVsvbZ2LnCG5dS6TjldaWxBhKkjYwmKr2CLGWviCLdOazEFkKlAlVbTb84ZoFgXa9KZljQcZqoQwoqnEF3Z0tA319XZdUMBzV2+elq55nXtFRGmJoGYViOet5C5vLPHMMF/+dBEl+stg2nsu3KR+xIglVYY+mLwoKJTM3tQ6Gj92nCG+uD0E8Sk8+PS+qgJByaagAOi4PS9+n/cxCAdW9IPlgSliIBGj0j0BqOteKp6ZM1BwKmTE4HYxmMKKgiQOXgaUAWfoZDkHTR8FhkP2CCbMeLGXj4xNtHIimciSuPZgnyJDpUIDwRFdP6xXKSlqImay54d7Ph85PWiSMsa9ddbdcjGNB7neWA1+QPWU2Y1gssGczJn5vAYvB4weKt8DIfVzbDRXHT/OxQd4xKZ5m1tdpqg9gHyuVqlnPQYsztrDTRqZKXU4jItY67URK617VOZTJxCeUcXDBjmmLtEaM00n8mus2/KHiuKbpR02FWTB4bnzilgza1ba3cUlX0wYhYBxwH2HuVAqWEn/otRDtf0tZx/PI1rxij1K5mi4Wy1CbI7GcrVG1IFsFCyk1ARE5ZayowuWqfTk/LBTCykmUqikTK4tKqFNf035nMU991azCSnao6b5KeaCKllzClxRjFsuoRDBiV+AqJxmaSvujQRSmFFVxFjB1jVyJEPoyEAoxEE4En1onvNzZGkUNgXwtm43nunvaLy7kQlK+cRX9f+NDvU7Lu+EbwnsH2HDSXci5WTAz0XwHzctFCZm0gvGt1jGr9jDSXxTBKGP01FM630s39PMoWkEF+Wr3NTWW2oZUs1IE3MWL0tEdqmoy3QpXz/EvscV/neyhaCBaGvWE5ebn0lE4AXkV4HHsagjdUnnUkdzF5lpiGCWWwl9LLfaacO+7+X3W6x2mbbq2DS2XV3LUAZfVQX70r0ppIXUPQ7Y4Uv64kBQNgLT6qAwzZ7XQwQIxaerTRlhD+JpVHc0Jh8nTG8iPrhQGVVSKvlPoHc2fMvl7MMNz8guyVsuxwM4XxtC8a3W9oHjPeajQtIXesAi3vxoSct2TSe2IqOhNoDkgW3dBNRvsPQhlIM37fWyikaGO2gLDDbKY3dZW9DNEC6dpCd3CZmhQNBHvyZEDpGbRVQL0lMsc6z2wIZ3iMwu6kBfsiY1OTGV6kol40WafOG4Q0ji7EpiTSDtR34kkPDfQxsfz7Y7rxzx13wugpV/VZHhLjUzYStCKpPCai531p8Y+T1Mp82rRTJm431eRWMAJRd/o7NjoeKcqfqSyFRC4ydVsmLPYJKxiI1KZdAEb9oIENi7gLdbt1LRqYrG4k0gkUMu4rDqlMsGSIFTzutHlqpoVK4frN7df7O1c3Q8tGXGxPkXF0W5ADwyyYClqQaWhq7CsWuDNNKGg9qN6rmoSAE8JB41wMq2qkYETkC0e5nfUsKCyszrlHLroj4RG9igFEc8E+d5VycswEC7Y4qd87mxLNm+YZZYqpkyWVFyL1RlYEsiygWp2pUIpkxsdW1W3ybnRiUjVggVVuY3UoSpHXk0yIehp3NQBcUHHMu3ktRYOaiJqAvP0ea8pSvXfqBQOtOfULD/K/jNdoVBqJ62hhdsrm5bQaYmgGCOnn6vyQ0RnkZTMFnheyoQQw+Zinave7Ev5COEDM/Mp24AKgkKrEG5NiN4xpOpU+YFV/dCpnYSH7b804aSHc5WucndqQUxsVEACBYWQdAujfhT8oiwlpMSggh2mwyAfJnWgwlzVcn8bNQOR4KPcM1NR0lHFuJoNg+USlYq3UAcKG+n//Sd7ugZHxlCTHD5XFFX0kJOuoVwmKpxSWgbiqVBCCK1hrBAF81vTedu2Viyh0zwgyI0KPELBVoWLqBcDNSUKUSGRW4Ki5LKmTWpm3Kg88Miu5z58z4bnW9N6wQkcapgGodcjEufiL7CAI4mNKk+q7YFnenr6VCR5Tovnqi0FZoH3VjIgIz40X7KzRLsxExgm0zYCb9vGnqOtSXvBagggyC9oac1OGNYgtkTk1FGvc2rtTP0VEKhH/n2VzJHUSpNh6+hAcc1CrW3Ckm1JVPWH9mc2YKhHjrUpbjetjqgmxMI9aNNvEs8clR6rVR+gcXFMNfYBtveQ64T2Ka0SuW/ri5Di6FqWldKvVM8BkjVV2WBueE1CIbL4qejZQhxNS+js2+JSM1dZurYnTxewo6Wjgk6vNbAtBF4Les4ETFRnfL9gxVAXlNgpMgNyj3fek9TOpHyw6BqGRtvDQ8U13ub2w/hD3QkB6o/le9CAKKIrApcLRE2TPNXmB21GRbg3VKKq2RMWdJJmcHISO8fz1fbhkXxXGHbynHHpD9oA6Zmu2ZG4aUwYtGYS44m4QYzVLMeiziOta1QzdeIxA3Z0goAAitZ/JLqrFskB4tJ9r6/VvPLQrZ2vblwVH2BXN3+Cy/7iZ1Vbjo7aTUz9Ps2ENPXaNKKf9jn1o5quGv1Hq34qVE+pE7COxVENbUFyvqP7QHFtvyWbyiMQH5Z/RObVFtBUN0HiV6w6VJbM5/32wYGJNUXIM2mKpK3zwTIS9mV+3qfiU2r6aU1jj+BbzA1Z2Qd5IFN9JkCmbOOhLlo0Vi7wRP2w6x+8q4yn0zCh6ynN59pdsbYoycKxAEfTEnoKi/Hng0u6RsycpitlGH6qxS6YGTPwfVLnUNOVpExaHMyriNuloHZ4zl03jJ84funuD9/Z+zIuBufiYhzRHjE92IzMSGTtXEi1dzFurU7XmKxqyaF+d+3kpJslA2ngVfBsk0VDiUIktFOkNBVQoUC57rZ4fzKp5+t0+SV3Gtrjujuz/V3dLVfCYGwzld5RLgmSEVVDIErjNEHnTrGQefO1Nz78qYd7fnj76o2XgrAKtaw+zYjmCNzCqFrTBoOUOm9VV8eAjd4RioqIC8i/X3sWoyHYSW1kaLLz1OnhbblpEcNzvK/3/Ri13Kj3Oed9PlXCZpoAM303ImJlUYRSG8HtXCCtrgdfmDXOmuoVuR+ifVL1iqc31V3GuuY+mm9i5g7zomoVcx/mB3+Swtt7+tr62ztTE1qZejLDcMPmY3YssmmbNXRIna5vJM6cHLitUvGobGjdD+yUqMrLjl5eiDVb1dWex1chpxKPiymQ1+lm6/50UU71laHKmuERb3VQRekf0pyQx0yte7nKIYdl4zXeUmCOT1rBms7U5VRKW3nSazSJcayxvt62s+vWdJyjpjVqS4zCQiC8YqVH2yDKrXoZ/Z2zozvPjABjVFBrMJnXaRl+8GkQSe9tXLv6RNKG3wGCoUqAUWl6iiIoEwYGOuTle2VbGxsPuq6U/JaFGtxUlPvUBWokNv07EVwU+blQA4nOS7sQ2WVQRFyZEqODO1OyS0CVX6Y/oVgW9bWqe4YzVUlRaYVkn6sNjOaHbEvR3j01MLI9Lwwoy4nQFwahRT5rh266GzZ0nlrVmx6myk9s0ma/i8o/n/JboRSu71j2xfOjmwqFhXl4KfAlii0iSYL/u6bMK1uViMbJnbayo7Rry4SiGc9eGt12pT+/XkNPb471oDwE4nCK8VSpxJxiZFmG1rIqW1jblbqSii1MlbFFXr5zvlx7FgVRujMILvM8tihH2gw1feK8cVay4tiXM1qummg9NVjZcmXSb5vzBZfQB1E4ytm6ofdINmPl0I08slxQ5zlFFOw95oI7eCCR8TqR07sOnRy8Z8Rz6m6BJbq6cdradIa6nuAXFuwM929gRp+medMiUooIqUDo9cOxK+WyG684QXz4g2rRz2G4sJlSI07lJuctUZXKVh4dpYjVMlsid9KCUHpzE3ot35EgqUVULgs9/INXzMa13e9uWNt6SkMzRxVjwob2aJfjfD6ujhVggzt58tLGg0cH7j2dL7XPYR1+8EfYbanMayofXpmtblS7nVJZ6n79WZ6QOjtRZK0Ker66ZiII+YFS8dC1mnv19fkXvZINNdt889CpR0+fHthGZUzpwSZ3CbeZ5NapqiwS0g1B6K62fcfaExt6O85lDPyygo/2TCy3ujt1ubM7NR5CkFX+JdoEiayAHj8I5DDH+nP02NHD5x4YROvSlQCZjXW9fnXi/NaNnafSGasaUtoe4aHi0piwqAkQeYwp8Cs3Wu75yXNvfKVCAa0LcEzVaK+Zk2leWKhXe1Xt+aNnkZ/HRTjo2Y9B8LladmdKTebnnkkW48hPFtIT+WprFV146zmsqufZ45Ml9CJAm2tlDFDf8Y9qokNMH+1LsGba9PAvwNHchK6IfMrzwCbfBZFrFgDZeZxyU1/nyc3rO07BJeYgpxQLEdGslKLCAicVu6AfSBiMoSiJn33h5befevfy6NZ5XPKGH0XxDjIZU3goP7DvS39TdebrPYJZng87G8yTyOkmK2T0IM3yFHN9uxdWIH7ZxpFz+R37Dl24r78/103lSOlBVktWSev8cLOag4L9Sbe0dUv3sY50fDytUyvilXu02nZl/eq2c2v7Wq4YFnUnJ5BI9OEehyxQBngGKM4r9Ext78/fefTnr5988kJuYTudNcOMZEzD70hqxR2bVr3b1mrmtKAIglJmZAozUEYyEnZQtAhidW6imn3ztVOPHT9b3p6regtb1v2aDVkJ/LWDCX2R0tYSMaucSSWKsOjgESOLTlTSgOXASEumgF500x4dy/dMFt26dsgrovzveL7cpmoVXKVVfvqjfFpuqkXZQLblxm1rQRpqNT2hX/tA1aIeljer92ZiY+tXZ8939mTHUCgC64GEOVXLXpE5x/TyZmfoSe31vacffmXvhY8fgmRezw2IyBx5vlGYZs109H5XaAbTyTTTf8369v7DqmsQXxkVwy9Phm3feebgrx0+Pnw7gpF1m+qEK2NgtM2x9xPxjLSxVLV4spq/ZffqPS3JxIr1n9dWU4du+BtWt5+97dYNh0y9gALq6DtIFdpIySRC5xxJfFlEXElt6Irf85OX3v30C2+e+cSI34RBWvV8EHGudsSzbN3ce7S1RR/T/CJ4AUnwvB9QtTyqjkd92jn9D1nytnbldHn9t3948NePD+fX1nko152uZl6//mWVh24iyHdhr6/Onorb5WwmlaeWXSTYsGsysijWCgUpX7ZljIzle3P5Ske9xjUJk2nF9+2JyVKrjna7qiNohMtUcQzKZ6H1iw4CiVjFWqCGWkuD0KdHVNdrFpr4PD22VdnY135q3ea+C/TgxihCmlysUYKOygMlKTTE4mjTBi6WVv/o2ZNfev7nZz9zqehk6nlr7EO/arO+8akxPyyNL1iox8zu6Cp3XxX43icsp2b1qZsUMjpZbX/lrYtPPP3jt788MuR3o9L+VBEZonPq/UaExJsMKsdZ0JtWrWu5smvn6rfiMXNBpPWZofa+76obNjMdx5rulksP3rf7p+nWeIH85pTWS3n77KQgMsdrVJxH04Gt3qW9dWjwvm+/sPfL7w7mNuQQITrT68z3fRB0dQ9FrzzUfJ3vuWb6+TLSrXbvWP/22g1d5/Uk4rpQtx3PG/ChipGqJC49pyHSXXUTeemVluQ3vv3qr7106NyHD04W6kZeHzjeqX1CvYurIy6SSTURs8ttrZlxjkpjYb5mLeD0Z/yuFCGAYw4MjawdHsvVrbQfmiRbQyOV3mLFy4QowctZcTQX08ic8PB9F/03ktXWluxELLZCNfTpJKFM7lfNOov2NM30qavj+3ZuXnPgsUfufM6yfAROK+2cNXQO1aS1SZHuVH0SRSYSq7QD+y/d9Y1v7v3rb7w98FjOdePVkBo6z/ugi3G5Okq1upq+WXtA6DkhoqLqm+aid1a6/u6i/USZcaiTGXerY/t29KU+QZW1VArg/HYbh60XmjaYd1pefuvih3/vj374Ty+fL27Qwiwun1IBMeQ3i3xoHOyF3z082J1d6dzdt23cu3N927E2q5HNdW6+Rc97Fc3wBJ0Ze2L3rtX71m/oOmfZCMlEKbbawSuO3bFUbY9y+RNatazF9rx58tFvfu/1vz4wUeqe4WXm9DYEPBlVWKzynh8frbrZ0YqTKYWeVanPc3bTMSUhMN+6tfPI7bvXHOjoyo4HPgLeaT9AWiTHgoFEUPMd7dsh/CNhXTey2kh/ddV//4uX/v4zrx76hfNVN3nTi8zgDVNJ+ZHNiZ8l9qGrLJhp/lGurcIV5RbhQAvpSmdresiydPArLsjWbWUaU3U7VPwMuuMZp0/3bz9/aXh7zq9P3M/YRLnjwKHzDxdLXotq+0vzUYtsV5xFlpQQKaotralyV2fLcDK2MIWkFgXsec0nV1VR3KRqmESBIDUljF9rxh4A87prbXNX4tKn7u/94ao2bdjxUWGMAqywILgeHi0OLFafesJzNCX6eoQp7cCBgQf+1b//1n/4o+8e/s3BMsKB53AEHupPUbspHCYugloWmAFQF0xF3IuZOk1xDix9EWFS5yrKjSdGr2+Q2ayHD1FcmdXIzg1JGaZH3mh0qrkTCUP4k60lwpSVqODpCwuRlOLMYmN2g4pRRmUyZEBrR8adVb//nTf+9v/nd579P48dL94euilsJugGhr3CgVCB6Ae16cL8ztkyZB4NRrWd2zOHvvTEnV9fZazs6Pbpc4wudeHqLrv/Y0/c9qO2rD+qeTAtU7tQrh5DsiVty8APaYABatDoVkIbHrJW//k3Dv/mv/tvr/+rZ45M3DeEuA86J+ZozgJt4FdRit9BGtJVDRzOWf2SHyZ+cnjwkX/1n3/4f/7Rt177G4MIglKi7uIcKRTP/NgDO3/8+AM7XtL8CYwQKWy8/5G1DtHvZN3Gzz4i4avYEvR4r3byYPn2P/jdV//p//cPnvtXB8f8bkqrnOto3bCEp4m61FmuclHTvBDcVI1NxazUOhwS0aPEJF6YVjpurheewec6WuMjt25ddSDVlsKigYUCVw+oOiPJykzkqu2uoWW00yfyW3/y0tnPvv7O2H0F3zH9cGzOmAwhf/DImcldX//Gnr82mQtR0x+WEzzSBnXkYKipZRh94Wc/r63bkDq9bUPnu2304gIcdY30W4DxTTvldZhPc6OzHHZNUYGFHclinD2LSMgz49VTWze2n7p46cJaPezCw0L9npCCAT+ZUjGVFEgEG8LkVq2W9eMnJ3f/lz98/v+VG8t3vfFu7ju3bWk9liYpYIaHQY656KAYJNR+pTjV0PQoMhsgs72/ZiW5alKL3MRzfjBmOLybvI1GgY4Z/IXNOGqZWVPEVVCapQ2PTK7ag0j0Ny6M9uerGpXNLcV0e9qK+uDLFNBO5Wx/ft3eQ5ce/tnrlz72+p5zHz5/sbwhDNAsjDYTFpMpiJG0AjKLqgwF6r0dVCa0VWuzw/fds/X1O3f17IuKdtbn9md2lgbP0fsP0g18PR/quScf2/30/n0nH3o9P/ChStmJaSZwBWHRMiZ3uUqgJH6H0OZltKEht/fpHx/5ytkzV7Z//JGtz+47nfuebSROzAyO977LMFWhGpTwNc6hnfHZ8/3b/vKH+3a+fWzg3rePDN596uT5bZ/71N3fCcIE3scFhxfloBS+3Zt7Dj18/7qfvfxa+rGR8fIqXc+ytSJAH1eVFWCz6EqV0ah/vO/GjHNnC9u+/d13fvXixeLmJx7sfmHfhaEXN/d1netAoZrZDNzWU+EITF4+nPSIAYE4S3OBbJtaEBhvHZHyRXox5WUvaCPIq6NvTSbyWze0H1vT1zIwOlrocaH8QBlnZVnV5af3cowNTN9t1hv7zj+yqmPvb25e/+S7a1uyuWhTmw0c/N4jp0Zv+d6PDv3KiRMjt/pBGldAqirhQT1pKDuD92g894SD7oSb17Wf3Lm+8yhS7RYk+n8JEfqssV7yH+hsjY3deUfv/oPHB28dG893GbFOrglMkjhrLRQnxAuVJGSQOrQZ2vBOnhrZ+rXvHPnN0+fLOx64e/Vr33njwumuznR/W6s1Hov5Ttyulb5HUWE44NDiwnR9D2VedbuInPbB4dKakQmn67svnbnn6LnijsDMkjoObQmbBmq4q54+alNVkfcK6gVZobOaRXpoMD7DhUiMpG9uXhEFErIpjDQIXRscLHX/+JlLv3DxvLZh44aWk3/ywrGzvT2Zi20t8dFEXKvGbd1BX3PPskzPCWBWLQepXM7rLObD1rEJt/OPvnWy9/T58W1vvn36oSNHL99eLpsJkzZWmDpRLhcjprrtkYzJe5wyu4doPKKFI8EDd9/32mMP7n6mPWUVFrJk6Kyga4I3I4gwrKI13W0b24499bFbvz84UOp751Bpt2G1KC0LlioKODLIncIlNYniqNOarY32T7b/bOjsE/1XiusvDITrf/+F46+tXd12ph1z2pFNjHVlExNdUaXv6bc6EbpmNajaLkiq6mixYiVIFsthenTS6fr6S2f6Dh8fuPvcuaFtl88Mbzp3cXzT0Ei5nTojVatxsHkiTC5i3Aj1f1nfYudeevfKzz/24Tue//o33/gKFXil+gYmfLfqeSSLHS036rwGIQjlYKnx36UL/prBgXO/eOrM2M59x4O7d2zrfOePf3bi8tqelvOZlDWZSRilVMIoI+cd7RsoyEuzqG0rqlVapVIlk8+7beMFv/3Pf3x8zZET1dvLYXsSBrAo9TsS5yOtqpa+FmnFiyJAtiH47p2RwqW7b1/75pkzb28az1VbNBPrpuZt4+cwMoMbKVTUm+h66bUzH9+0/uipJx/d8t2SG55K2TcnWScsQKxEaqBrxs9czG3+zjNHvvKzV459slQxUZIXFkysT0qxDHRkIrDAk8CejP0SmQmtXYncXTv63t7a03Z2oR63JULoURJ6LRd9odBosvPGsS6eePSWZ85eLG3+8XNnP4NGFBZFtMKgyKZH5a9RxKqqt5EzGzpfrFs7eSa/8eS5fRt//FrHZ7duX3N0y+b2Iz2r4xeyWWMilbSKdsx2DNP2XC+0HaeScKq5lFvREqNDXu+pU+O7z5zPb+sfKq91ip6lW1SPHFImfL8qo5qeElWeUynr7BxuOHpRrfSpDYR92Bygooic/OoQYLRK2bD37hu/e+++obvjmbC6fnPHuZ27eg92d8cvt2StXEvGmsyi610yaZfyznh6eLjc13/J3zDYH64b7C+vHxzK9YyNjbUELoQHkLiB3FMyCFAUqwGBh+MNKEcYDz5d3ySpi3uhF7RNm1KnP/7Yth/es3v1m1QQo+GgNdkA4oYVlEO3/OkP3/bNEyeHd1+4eGRDvjCJsuTcCpznMsr7U5s1p1NC3oy3aYEb148fz207c/n1jav3dn1689bVx9evTiMFtPXE7m2dh589daVIrV7wH+qwcJBF+LN3R+1codKWnyy3TU5U2nI5t3NiUmu7eGFi25mzI7tOnLy0LajAsYUg1BDFnHS7A96coqHjZ5ZqF/GwjVhYhatnuOSf/IXP3Pm1t/a9c//FS6WtSIFWa42q6sHcTkVmlM+YNFTKEgDRYJ268J4dPlC67fDh/be1dCWLPavTl7dv6z3c2Rkf6GizR7rb04PtLclxz/NiZSeMl51yslIupcdy+a7hEbd3sN9fc/5CecuVgWKf5iUgRUCYgmVA0SAtepb7pwJTDJhUau1SFgOmTvREePyhLc++sffQQ5MThV1hkCFVGZemuSNph0ah9k0IY9r5y8WNf/z1n/+dkTGn68lHe3747kjueFsmlVuViN0wSHUcws1wxU2OTJTbj56evOXFn737mRdePvrps+dza3W7Ve3JhHy0KsgRrBwO1IhpUrvrjrUH7tnZ++baltjEQuHR1IQeEdV1m940lXChUGma84baw/dse6nsmokLl3Lr9x/ov0vTMrDq4AGGeEymXG7pqIxskf+KQg6wsOIknfra2LDTsnfo6IN7Xy7cqxuOByJ3LSsZ2mYacntS91zDctwKnsxxP6g4BvqxxDQrg90TZjzyghmoKuuHSMoiwkL9eMDPJjZetfSwRKTZDJhxOKuNp9XG/dBGRuUxCZ2oihYLHWQlxXd2Wxia47jxUwev7Djz9rnt0Gro1gI9HgutZMozbcMPy2OhU0FHrwCgG0mEFWDjhCUkJNN6jDRFOg+VdCVvOSyYHMlOPnPMD/zodEXfKWAqJrWWlmrur//6U//5ycd3fq8jtVi195thYmY3hiTcH/kwHPjcx+78xsCVyd7vPb3n01pylR0gjoR6n5NQVqMNFfhIGSCYCyhJIYQrt+rbl9/Jbb58aGBzqBWcRFYrrV7bORjPxsq6hdIKkIq9wMJCiYVuMYxXS9VEIT+ZLheKcb/smJC9kFlom0hBwoKysKLwvEG6Zvs0rf1qGX4vD1YgCiBZ3COOsoOlwC88dHvPq//gb3/u3/7b//A//+Wl/sJ6K7lWCdjwG3PdCu5BgjVK3dioXzy76ED40ORJcywNVdOXBkvbL755aXtAqV42yDcR82OZtA/it8xqNfCRWul6ZfYphEEcBdAzqN+CgE+kyOmImOFys2wFU8+aOpTARVoqMl+wFSHyB9KttQiVJFviZvnR+zb9ZO+j2x4ZHDzQOdQ/3qunYdUkRZAi5Wq1PLjAC8W5BNqZM0MbfucPvvH3f7an44mPPXH/jx6459YX3hqrvpuOGyXb1l1q+FfxAhtxRfY7g9W2Cxfy21559dinnvnJ3s9eulRY6/oJW7fbgD3ln1OAPRLdsUfoiGkKIFwFEOK1IB/G4vn8L33mi392+47etxZyxTQ1odPjo/ruKgg4TYPNpsqKyWuHo96X55HAQ1BBqO8j92z46b/5X7+Y/6O/eOPvvvLG8Q8P58pdmp/BA0MmHi6OSbShTD3UwQsPNjX/oLamIQWywc+lmSkLhGU5TphwURGyzIFt9DDSQidigo+eE1kBLHOd+k4BNtzukyI1OTKcKDLSyOnzHI/IhWcaPhPsWw0tjCSG3SzaZLjgBmGizN5c3IFGTC52/g3vi6fx4CVIVCGrJtpTGlq1SOxBi6xXfZZjf2jDjBwLvP5oLeJ34KPsFhTARZun0la4GIqX19KpauX2W/ve+uovPfwHTz669Uer2+2RlGjnH/jQZuFjHK0Er7f8rY8Wtm1adfIHzx/+hTMXS1tcan9uQrai5jbRiqP1yDm+XLubfiZtHuuerFV6NuZWvNjFM2FbgH7qIQhPBZKpNYziSWoP4Vrf9P4EWrTS80AmbBLI1HxSZgLt2TTTcJvjE6QNTy81unh7UAoNRvKBn//cJ3Z+PZX8YvkvvvXGX33+pYGPaTbcPrTGsXQp3kZD61neHcmfDHc5tVvVycdO2EG7RlVzxG9imaNRMzMSnolKPorNQctfPBi4V3J3kABP+wk1/aTNl+5dEaQS7GmLpnSt6Pmi6n7RTgE/frAYZE63Sc/UhO+VfuWLj/6+abT53/n+8a+cH/DWYEIxa5Hsxf6IyF1IQbNGBsRuxw8eNe85ef7wHX/2tXf+TkvKGG9rSYy1taTGiH8K5Up2vFBsLyElGKEDiVIpbCkUzZiPPVOPUaAwZDuKlyFBnwDHmrJQ9tnV8pqVyFU372g589XPfPzPPvbAlmdaM+aCNmFqdkL/4KdkyuC1nEndDBFRXXzkrt6Xuzs/dymb0f/X5392+GNDg+U1WGugGJKW8eCSRA7/LXqSM1F5FJwOTbTW7FQ1BVEaNQXLKGlImej4wURkNpk16e+s/7CwRACrB5e0IrZuYkOg9yA0hhcyxbb7AeoomrpHjcUWb1t775VIuzYtBBgwyVJ0OaXrk0892rTJHMbSIG9LfB8qCCEy23LfbVUIRtnNaVOknGd6CwW50IaoGnRSwRhk3kcaOsyZuHny5zLJkHZCvZCNAtJUSuP337V6z1e/8uh/+9QTO55GeSpfyHxmq6QlplU+dOuqvWcngpNtHdnxP/rzV//W2fOl9Rq0RCpgaKAZierHASmM1ywbmpmAXOIfyhMEqfHBhE0CKG3sipC49zotEkqK4DlWmgI6Eqk1wQKiWie6n1bXoshprrhAuZw1VWNm91PPd2UN00fQXuGXnrzta7GEXjp04pu3jueK3b6XMkOf1izJo0Qy8KXjGeC9AYKQ6jGvLBwcgM76EvaJWrkJDuyHTcukan30XsKPLFAkANHeQTEpEHh8yiCh3QHW6dozoz7B+wXFOyCali9Xz/u+2bkShu8/sLH7+MErwW8n7Pby//0HL/zjStlLajbdh9q7dArupWGSuEY9MUjwcWNacSKwimPlzkG/Ch/jOG6OLBBYH7BqkDDDX6zMEEbqd9p3SZHidUUZvlExKQPliy0z523bljzxxc/d85d/40sP/faaFBzrC3w0O6HXnqwbw3DtUlnUhbPA83LN6ZPc3UMLJ8LwzP/+Dz//v9y+a9Ovfv1be39131sn7gysLERuaOuIBOaHjR4pkhBNixLOwOFR22J6dmkxUqpZzfTMDM1LnM1EZAFRHYQVgVOatQIVQoNSa/BFJyVTPzU8oI0CPjSkapg2OYkbt8HRKOlRM03X0y1UamabN7lJVQ6/0h6i3HQ2wUWUTvdF/llOwVP40QalkpHoHyq9y/CrKIFIA+f0Kd68iETgN6d0PpIoOE+6qvmVUWQjjFd+7Zc//99+8bP3/OktW1qPJ2HajOZyMZfPkr2WTfIqjlUtWu43fvG+/zQ2PNH523/wo7/jV8sJzW7hTZQEzCkuptVJmyunZUAb5zsnwqagJHK/0HanfidNmwSzGJcSUESuWrZS8KKS56JoESZ8Jjwy9+PZUhYYWgGNbUhEaX6lwNU//tCuZ/6vf/3X/u7v/v4P/vnBtwfucKtezIi3covlEAVo6N644h71DqHAdhW1hj+TwEJrnzk4SrMiIZcgIasW/UBR89GdskZOghBvJmydo5RMFnSiCN2QAkLRFA7uPXp2YG/3IolqcZZhHK10q8DE1fWLv/SF2/7wlT0HHv/53hMPIu7R1mPABL5zmn/VUYGMF6r+PQfk06uw6lBxGDLRE48rESWyvEFA5G2DrXT09CulRuc1RHsoRfZX8JSXtLA8Et79YO/BX/7lh/7wl5568E/abI0kpAU/mpbQS3BEHnzffujqUY3KGChL6go4WqFWFMJg/ItP7vzz9Wtaz/zw+d4vfP+5PZ8ZHRrsCpy0qVkpkAilTYGQOD+cglYiHZ1VDUVAqpIS/aqmnzcxPKS0gbG1nZRMhpiIO0oTIr8Zv7dGcy58w3kQF3xEZj6sVOLwMjbY6o7sYc+bCJ3CQKiVM1qAlHDUdmccWAtjlo6i3mu2BOZv2tjUJsUPcPQ7uyOwMUXUD62QsCRTOmUU4H3UVpmz7+F0xabmVaCtUM0AvRj2bcxc+diHPvTjX/3y/f9l26rUZRj2fFsJZnLMEgHaP9en9fyhcxO/19vXff47z7zx5bcOnr/TLdmp0GrVbBsaKdfu59lVVhh2bxPcavPlIM6odgK5VNRKpy1ZNTahn3lJ0B7Na0SFWqi1Ae3WqGhVaF0hNmytOBx6Th7O+Pp3M5slNFrKsIOS71c//tCaZ3vb/srwD5858uUfPX/oqbOnz67XXASuxVJQTmFdYI0Ua5zIZ1qxo6tOKFr6ahtlROAD5pSvKAiR4xbgg+cnhD5PmTb8fsKGzPfAEhptiLK0mjcOx3MO8SlFuNHJVLW4R9xQKahjXnDlX/6zz/6T7z+7+is/fv7Np06fvLRZC1tMDQFshpGE0gPtHPNNBXmQ4s/zTgYKvi+wOZJfeT/guhsk8LHVnlYM3RK5MeivZCEl36SvedUcMJrw23uSY5/88sM//MIn7/r6g7f17FkfN6jb0KIcTUvoDKUiapaV1Zc6rtZGIMTJX8ObcfT2RcGtYRfJqOCS0aGq92JPb/rijl2r39l/6MoDR45eufvsueENldGRmJaA34v86/AjonKwMhtyIAj5wlltVwSndFrGloqvEElR/WyKjFU+MLUhIjIMn8MihmmdVzz3+Ha0ls54ee2qtWM9q7Nn73ug98WYtfhBQrWJqGBRnBucGHrsoVtf1HxL779c3XxlYLJnfHwiG5ZJS0dwHx5i8r+SVkG3ziZD3sPwiEb+QLXgakIPmSWnwmOp0A5rauxJBYH7FIzlEiZFPN4FLdWSKm1av/rCbbfft++u23reeODOvle2rs5coDrcDVsw773wjISKmnjTDONOcpqApm1flz2d/PTOr/WtTV/86aunPvnGvtOPnD43srk6OYZEdazzKCiOYkcsmJ2VHT0SZGnWyJfMVihVrIYENy9W21uU1q1EAvo7XqegUyqt6jmaG05g7bhh75qu0a2b73zngXu3vdaSMkvNgE+KazppxXHP39OBLI2duzoP7dnf//CR44N3nDg5uLM8MQKJh4I5E6ypozAM36dP4W6kYU/J4ZG0zgIRET/hQeSlirLwk0JWKFJTI20dUiyIHL8jRlADj2ZbzfLqnr5cb+eW848+fMtP1/R0nmsURsizd0b94K2WzL0T27Z0H33plRNPHj42cM/5SxPr3HzO9GmPhNuGTOfkgjFYUCGBndYNBchTHA7pPxwjpDRwMrFzlDx+9oANBHgtgFKDPaB3Q+vQbbfcsv/+h7b97EMPbn7mtrXt7/YlY4u6RpqX0GHDjEPs45IAVN0EXjHKN1U+HyU5IgEJE0KmHQQaQoRcdFGwUSsV110Vt0rlMDx025audw7dse6VPQdPP/7m22ceOHFyYOdILugZm/Q6KmXXCiplljA5YIM3N8Ivso5HEjmbOLj0kyqGgDKX6r2k2ZKVHjxNtccTSdNpaTEm2ttS+EoMb9vUeWL7plXHt6zrPI7qR0dWxcxZFaqoJ3yUz50rOyOf/9At//PWTd2Hz18Y2nH63PDWsxdGNg4Ml1dP5LXu8TGvM19yUggMhIKBG2Otjhub8sPM2QH0RaY13vwjvY2DpiCBc5QgCTP04AdaDJjEk7abzbRMrOrOXNy2tff4g3dvf/WhO7a8vHVd26lVcTRga7Ljqimrxus0wdMGqWQ4dpayi6GJjoTJts5hVPd7ete6rmO3bG05suftMw8fPzO6c2jEWT065na58P6AfTFNJOirwFDasMm3yb/y3kHKAu3UWAdUB712p+xnJw0Mwi0JaxBiY8hkSLcaha6elsG+vsyFu2/fvO/uW9e/fveOtftWJ6xF07xmMg3taB+K9x0ec8MTD905+dKeAycff3nviQ+fOD2+e3i0goYkQUelFMR8CCgslAMnpLlEgCiBhrVv5m4l6HMHNzwLlNOuklvYhsdkh7IBWP8uaqjH8+3ZzERXd3Jg3ersxd3b+o5uXNN5aueW1YfW9rY2jNDpLjrJL6hpx0eq4dlbN/Uc2XPg9If2Hjp//+kzozuGxis9E8Vqm1utUoFtpazg/siqyb5zJnMV7IaqgUzq1ASHgt6QIIFOqYGWTGqV1rQ+3tPZ1v/YI7t+9tiD25+997bNP9+YNhY0+O391kPTEjpZOJA0xN2tUf6EmhEYJklU1E6UzWeqDKqPBQmpk+IvaKWtqIOKWpQCx793x6q3bt2x6sCnPn5v1+HjV+59462TTxx45+xd/QP5NROjldZKYTLuo7oBHkYIRVx0HU4xE24iDl3l9G3k2cL9iCRXzfVNhNUgaweJPTEPD3iYTiUqyZRVXreu49xtO1cduv3Wra9v27zuUG+XPdAa18qdC1T1aLaT2QZpGELOuS2rW84F9299dhIdSoexyV8eyq8/fOziA4feOQsrxtDmS5eH17iuh0Iibgw5NXS3FL4DA7qFTADLpLQmrqLJ5jcIk3iOAYOPzQ9SpubZCaPaggYiPataBzo7W0Zu2b35wF23b3z1zt2r93ZmtTwSCz3yzzblwYFfHzC2GuPPo0ToQt93VGXr+HgYnnryYw99/ejp/jte3XP0k3v3nXqof2BydX6ylHUrYQz1kmJeEMaJosmaQhsylVuhjZrEFUaByZz8qOQzpfasHlIdKi6aYTmJTKy8ujc7sH3bmhP33bXx1ccevOXHG/riF1FmCdrFNWLQQt/yrM7fgcJIeA5O7tpwz6lPfOTub719/PK9+w6++6ETp67svtRfXDc8mu8uTJTSFP2P4ny4a9uCFgrtyeJtgDI/id4Rf+KjQh/K1niciM+WdaT9mbbtx5MpJ5tN5NeuSl+8ZdfGw3fcum3Pts29R/pWJS8jJRP5/hS1oC1q4Z0PAqkrrlNu+eujYfjmU8OPdB86funePfuOPXH81KXdY+PlrtxkpWNyopRxK2ULewLwIHGFo/2AA7e/4ZRWas8cS8bdVDZebm3LjPX1Zi/t2Np3jApF3YlGS90prYAMjYY9/E1L6BSlEAZ4bqrwhBQugrUTKP+VpHQkUqMwNxCn0O8IjlzdLaWrmpNnY8msVv4yeHMKxSai2/DyoT+0+qENP/7I/RueK5SC1Ln+0pZjZy7fce7Sla2jI7nuCooilCt+slCoZMtVJ5EvlLNUnjERT1TaWtNI1UjlstnkRGd7y0g2k5xozaRz7a0tw5lMfKK3p+NCb5fR326HqG7DBBe03KDyVqMhnVa5i3ApQZu7uKm34/IDt3bsdf/KHcbQqNd74tTFO4YKE13jhVJbfqLYXiy6mVIpSE9MVtsmJittE7lye6nspqC1B23Z2HhrOpXHw5tLoQFER1t6dO2a9rNbN/W9s3F9x7ttWX3CQjYPFQGiQHeyIS2D6m+RI6LRs/nB10fhbA+R3sN9HX0vfujuvpeHxj/a+e6p/jtOnbt8y4XB0rqhkULPxUtD686dv7JhcGCkA+Zz5WgnxVNFbpMrHUUWTC2ZTVa7OrJjHXgO1vT2Xd68oev0ti1r3nngnl0v9naZAyls7chmcym0bClkKUTPATJk/PHu+9a8+MS9a14qujrCNMPM2YtDu86evbwbVqytVAa5hEqI+ZKbLleD5OREsRXWDTMW06stLcnJ9pb0eGtrcjybShSy6WS+BftCW1vLcGdnZ393Z0v/1r7YaRgxkLiuBZADkFRIxZUpCbQ540WgfHjYEwY2dK7/8ZMPrv8JakOZQ+NB17v9Y1uvDIxsHB/LrZrMI0UNe2Ol4iSJxOPxGCKEYuVE3K60Jc18R3vr8EaUmFuzuu1cC57/ON6DRFm/E5k+jX5impbQEU3hr+rKXPmNr37ovzz6yM7n2HupxyBsK0UcplIKVaaWdDFU95q8ZWP78WwiiT7zrm6bM6/L3egJqOf1s1TtQR0+2i26XZtSR3as23iy4KxN+JA6sZ+ZjgfNhb67oU0PMFnZUGLDScaNCkokVG34nWL4HdncKCVhuLB9kKstRFkVB0q7n4Ap0zSnhIh6Dn9BzhVVYyMnoO9A2G5bZV5a275mpBL2GRXq9w7LBSKX0fcdGcqwsFacIFFB+U/ghCBrPYhB20Ep2GoSuCAlMEjGCCfDScWsStzSXBslSkiMRwjtMhIml45gTJHeNLf0RRt1X8uq3P23tb9RcKnSWZAoFL3MWK7aMZEvtdJdoTSv6bo+zM5U2hTlYxJmlTZrVAUsp9FTO43yp21pVApMGsWkbVbbUnrBhv2G4p7tRSiOUu+HIKlzXRgmGqx/tx1E3be9fd99m1sPVtwdqAjnx11o6VWsd3xh/cOigWfBRnnoBPaElG1UaD+wEQeC4lJBjNJTYcaGC8OnnzNWiPp8jY32ny1m0Z6gIttwVLzwcl9X+3B5V8s+H0V1UHAGxYVCkAhnx8CwA8cM9gLyysUguAMPN27bVbjcXPTcaKb4GM7jaMojjgeV8izvvbV736072g/hSUQ5BzNEYxKqP6qcYQCbEk2ogVXaNFwU1IapbGWS+fWTSO0Waa1GX4joee9BncY4kBV/okIeTbkQ6jiomNr86SFGFMv7H5RhcfUp5eSdML3ENq25w6YCybCR1RJu536qRf5kZIqnIKRrApEmILB5KIEIbYDjHeHAYwGOapajboFnwYxKCgQsTyhLpAXLtSRvtP5paX9gPjSq9PGesFxxuH5ZJix+3CkeoqliIuby+DQtodPNQPrm6M2bLcC53Lh8ZuqBXUaaZX1m9TqT6rLChzSOmmeKy3PWAiM53esqflT5rz5oNv4srarbYFNpUo1H5f1H0EgfcDPjshTG1tSEvhQAlDEKAksIgajUV5ScBwanynbM6VRlbdlQ+BKaERmqIFBHBITQ6wimnEoQaGYEONIt0shVMLvKr1Uvqe/L3u/SzBMkYxME5omAEPo8AZSPCwJLCIEpuzqnm3Pt8+hg9Vxp7rV/ltB9yVAFAUEACAihyzIQBFYIAohFRswzMTc1mcEX6+No98gMzpXp4WiutYIW+/sKWRZym8sIASH0ZTSZciuCwAchYJVdOyyMmVrhjO+hdIZqFE0VHZCfjQ6QXDrPHwsr5bTmVPOJAO0h5RAEBIGlg4AQ+tKZKxmpIDBnBPJh1bwwVhx48nMPfqdzY9/FWEtXEeVtkVqPnC5o7chSQ7YtajxUPbM9q+fQg/xYDCldc76gfFAQEAQWHYGrpZ0X/dJyQUFAEFgsBFzPNQqOlxrOV9rGCuU2HcUxqEUZ1cVQCWooVovfAs8y4pbu9HVlB1sSWilhxMX2vliTJNcRBAQBQUAQEAQEAUFAEBAEBAFBQBAQBAQBQUAQEAQEAUFAEBAEBAFBQBAQBAQBQUAQEAQEAUFAEBAEBAFBQBAQBAQBQUAQEAQEAUFAEBAEBAFBQBAQBAQBQUAQEAQEAUFAEBAEBAFBQBAQBAQBQUAQEAQEAUFAEBAEBAFBQBAQBAQBQUAQEAQEAUFAEBAEBAFBQBAQBAQBQUAQEAQEAUFAEBAEBAFBQBAQBAQBQUAQEAQEAUFAEBAEBAFBQBAQBAQBQUAQEAQEAUFAEBAEBAFBQBAQBAQBQUAQEAQEAUFAEBAEBAFBQBAQBAQBQUAQEAQEAUFAEBAEBAFBQBAQBAQBQUAQEAQEAUFAEBAEBAFBQBAQBAQBQUAQEAQEAUFAEBAEBAFBQBAQBAQBQUAQEAQEAUFAEBAEBAFBQBAQBAQBQUAQEAQEAUFAEBAEBAFBQBD4/7dDxwIAAAAAg/ytB7G3EDJgwIABAwYMGDBgwIABAwYMGDBgwIABAwYMGDBgwIABAwYMGDBgwIABAwYMGDBgwIABAwYMGDBgwIABAwYMGDBgwIABAwYMGDBgwIABAwYMGDBgwIABAwYMGDBgwIABAwYMGDBgwIABAwYMGDBgwIABAwYMGDBgwIABAwYMGDBgwIABAwYMGDBgwIABAwYMGDBgwIABAwYMGDBgwIABAwYMGDBgwIABAwYMGDBgwIABAwYMGDBgwIABAwYMGDBgwIABAwYMGDBgwIABAwYMGDBgwIABAwYMGDBgwIABAwYMGDBgwIABAwYMGDBgwIABAwYMGDBgwIABAwYMGDBgwIABAwYMGDBgwIABAwYMGDBgwIABAwYMGDBgwIABAwYMGDBgwIABAwYMGDBgwIABAwYMGDBgwIABAwYMGDBgwIABAwYMGDBgwIABAwYMGDBgwIABAwYMGDBgwIABAwYMGDBgwIABAwYMGDBgwIABAwYMGDBgwIABAwYMGDBgwIABAwYMGDBgwIABAwYMGDBgwIABAwYMGDBgwIABAwYMGDBgwIABAwYMGDBgwIABAwYMGDBgwIABAwYMGDBgwIABAwYMGDBgwIABAwYMGDBgwIABAwYMGDBgwIABAwYMGDBgwIABAwYMGDBgwIABAwYMGDBgwIABAwYMGDBgwIABAwYMGDBgwIABAwYMGDBgwIABAwYMGDBgwIABAwYMGDBgwIABAwYMGDBgwIABAwYMGDBgwIABAwYMGDBgwIABAwYMGDBgwIABAwYMGDBgwIABAwYMGDBgwIABAwYMGDBgwIABAwYMGDBgwIABAwYMGDBgwIABAwYMGDBgwIABAwYMGDBgwIABAwYMGDBgwIABAwYMGDBgwIABAwYMGDBgwIABAwYMGDBgwIABAwYMGDBgwIABAwYMGDBgwIABAwYMGDBgwIABAwYMGDBgwIABAwYMGDBgwIABAwYMGDBgwIABAwYMGDBgwIABAwYMGDBgwIABAwYMGDBgwIABAwYMGDBgwIABAwYMGDBgwIABAwYMGDBgwIABAwYMGDBgwIABAwYMGDBgwIABAwYMGDBgwIABAwYMGDBgwIABAwYMGDBgwIABAwYMGDBgwIABAwYMGDBgwIABAwYMGDBgwIABAwYMGDBgwIABAwYMGDBgwIABAwYMGDBgwIABAwYMGDBg4AwErmcKW7pUsqgAAAAASUVORK5CYII=;" vertex="1" parent="1">
          <mxGeometry x="1122" y="418" width="70" height="70" as="geometry" />
        </mxCell>
        <mxCell id="Vm8956Kmj3FX7EuKKiUj-28" value="&lt;b&gt;&lt;font style=&quot;font-size: 14px;&quot; face=&quot;Comic Sans MS&quot;&gt;Data Ingestion&lt;/font&gt;&lt;/b&gt;" style="text;html=1;align=left;verticalAlign=middle;whiteSpace=wrap;rounded=0;" vertex="1" parent="1">
          <mxGeometry x="381" y="128" width="104" height="30" as="geometry" />
        </mxCell>
        <mxCell id="Vm8956Kmj3FX7EuKKiUj-29" value="&lt;b&gt;&lt;font style=&quot;font-size: 14px;&quot; face=&quot;Comic Sans MS&quot;&gt;Raw Data Storage&lt;/font&gt;&lt;/b&gt;" style="text;html=1;align=left;verticalAlign=middle;whiteSpace=wrap;rounded=0;" vertex="1" parent="1">
          <mxGeometry x="381" y="570" width="104" height="30" as="geometry" />
        </mxCell>
        <mxCell id="Vm8956Kmj3FX7EuKKiUj-30" value="&lt;b&gt;&lt;font style=&quot;font-size: 14px;&quot; face=&quot;Comic Sans MS&quot;&gt;Transformation&lt;/font&gt;&lt;/b&gt;" style="text;html=1;align=left;verticalAlign=middle;whiteSpace=wrap;rounded=0;" vertex="1" parent="1">
          <mxGeometry x="550.4" y="128" width="104" height="30" as="geometry" />
        </mxCell>
        <mxCell id="Vm8956Kmj3FX7EuKKiUj-31" value="&lt;b&gt;&lt;font style=&quot;font-size: 14px;&quot; face=&quot;Comic Sans MS&quot;&gt;Transformed Data&lt;/font&gt;&lt;/b&gt;" style="text;html=1;align=left;verticalAlign=middle;whiteSpace=wrap;rounded=0;" vertex="1" parent="1">
          <mxGeometry x="715" y="570" width="104" height="30" as="geometry" />
        </mxCell>
        <mxCell id="Vm8956Kmj3FX7EuKKiUj-32" value="&lt;b&gt;&lt;font style=&quot;font-size: 14px;&quot; face=&quot;Comic Sans MS&quot;&gt;Analytics&lt;/font&gt;&lt;/b&gt;" style="text;html=1;align=left;verticalAlign=middle;whiteSpace=wrap;rounded=0;" vertex="1" parent="1">
          <mxGeometry x="885" y="120" width="104" height="30" as="geometry" />
        </mxCell>
        <mxCell id="Vm8956Kmj3FX7EuKKiUj-33" value="&lt;b&gt;&lt;font style=&quot;font-size: 14px;&quot; face=&quot;Comic Sans MS&quot;&gt;Dashboard&lt;/font&gt;&lt;/b&gt;" style="text;html=1;align=left;verticalAlign=middle;whiteSpace=wrap;rounded=0;" vertex="1" parent="1">
          <mxGeometry x="1096" y="120" width="104" height="30" as="geometry" />
        </mxCell>
        <mxCell id="Vm8956Kmj3FX7EuKKiUj-36" value="" style="rounded=0;whiteSpace=wrap;html=1;fillColor=#e1d5e7;strokeColor=#9673a6;" vertex="1" parent="1">
          <mxGeometry x="540" y="36" width="320" height="75" as="geometry" />
        </mxCell>
        <mxCell id="Vm8956Kmj3FX7EuKKiUj-35" value="&lt;b&gt;&lt;font style=&quot;font-size: 18px;&quot; face=&quot;Comic Sans MS&quot;&gt;End-to-End Data Engineering Project Overview&lt;/font&gt;&lt;/b&gt;" style="text;html=1;align=center;verticalAlign=middle;whiteSpace=wrap;rounded=0;" vertex="1" parent="1">
          <mxGeometry x="550.4" y="60" width="299.6" height="30" as="geometry" />
        </mxCell>
      </root>
    </mxGraphModel>
  </diagram>
</mxfile>
